<?xml version="1.0" encoding="UTF-8"?>
<svg width="1604px" height="568px" viewBox="0 0 1604 568" version="1.1" xmlns="http://www.w3.org/2000/svg" xmlns:xlink="http://www.w3.org/1999/xlink">
    <!-- Generator: Sketch 49.3 (51167) - http://www.bohemiancoding.com/sketch -->
    <title>home-2018</title>
    <desc>Created with Sketch.</desc>
    <defs>
        <linearGradient x1="26.4485921%" y1="21.7599262%" x2="74.9828574%" y2="78.5281995%" id="linearGradient-1">
            <stop stop-color="#FF8751" offset="0%"></stop>
            <stop stop-color="#FF496B" offset="36.5708529%"></stop>
            <stop stop-color="#EC267D" offset="73.6826262%"></stop>
            <stop stop-color="#DA078D" offset="100%"></stop>
        </linearGradient>
    </defs>
    <g id="home-2018" stroke="none" stroke-width="1" fill="none" fill-rule="evenodd">
        <g transform="translate(7.000000, 1.000000)">
            <path d="M298.145652,199.35 L239.195652,199.35 C239.645652,132.75 302.645652,103.95 360.695652,103.95 C423.695652,103.95 492.095652,129.6 492.095652,204.3 C492.095652,284.4 431.795652,299.7 365.645652,299.7 C339.545652,299.7 297.245652,306.45 297.245652,340.65 L297.245652,367.65 L492.995652,367.65 L492.995652,423 L237.845652,423 L237.845652,340.2 C237.845652,267.75 303.545652,246.15 365.645652,246.15 C389.495652,246.15 433.145652,242.1 433.145652,205.65 C433.145652,171.45 402.095652,155.25 361.595652,155.25 C330.545652,155.25 298.595652,171 298.145652,199.35 Z M604.047826,242.55 L604.047826,288 C604.047826,402.3 762.447826,402.3 762.447826,288 L762.447826,242.55 C762.447826,130.05 604.047826,128.7 604.047826,242.55 Z M545.097826,288 L545.097826,242.55 C545.097826,54.45 821.397826,54.9 821.397826,242.55 L821.397826,288 C821.397826,475.65 545.097826,476.1 545.097826,288 Z M864.5,423 L864.5,372.6 L911.75,372.6 L911.75,162 L862.7,162 L862.7,108 L970.7,108 L970.7,372.6 L1014.35,372.6 L1014.35,423 L864.5,423 Z M1196.50217,283.95 C1159.60217,283.95 1123.15217,297.9 1122.70217,328.95 C1122.25217,353.25 1148.35217,376.2 1196.50217,376.2 C1244.65217,376.2 1270.75217,353.7 1270.30217,328.95 C1269.85217,297.9 1236.10217,283.95 1196.50217,283.95 Z M1060.60217,328.05 C1061.05217,303.75 1076.35217,273.6 1108.75217,260.55 C1081.75217,246.15 1069.15217,222.75 1069.15217,198.45 C1069.15217,135 1127.65217,102.6 1196.05217,102.6 C1264.00217,102.6 1325.20217,135.45 1325.20217,198.45 C1325.20217,220.05 1313.05217,246.15 1284.70217,257.85 C1317.10217,270.9 1331.95217,303.75 1332.40217,328.05 C1333.75217,401.4 1266.25217,430.65 1196.05217,430.2 C1127.65217,429.75 1059.25217,401.85 1060.60217,328.05 Z M1129.90217,196.65 C1130.80217,224.1 1161.85217,240.75 1196.50217,240.75 C1232.95217,240.75 1262.20217,224.1 1263.10217,196.65 C1264.00217,170.1 1236.10217,152.1 1196.05217,152.1 C1151.50217,152.1 1129.00217,175.05 1129.90217,196.65 Z" id="2018" fill="#F9FAFE"></path>
            <polygon id="Shape" fill="url(#linearGradient-1)" fill-rule="nonzero" points="1339.17622 234 1346.219 238.066405 1346.219 246.196961 1339.17622 250.262464 1332.13389 246.196961 1332.13389 238.066405"></polygon>
            <path d="M449.605,0 L465.215,9.013 L465.215,27.034 L449.605,36.045 L433.996,27.034 L433.996,9.013 L449.605,0 Z M449.606564,2 L436.002,10.0115558 L436.002,26.0302229 L449.606564,34.0400009 L463.211999,26.0302229 L463.211999,10.0115558 L449.606564,2 Z" id="Combined-Shape" fill="url(#linearGradient-1)" fill-rule="nonzero"></path>
            <path d="M10.2227349,56.4710223 L19.9793541,62.1043605 L19.9793541,73.3679118 L10.2227349,79 L0.466740637,73.3679118 L0.466740637,62.1043605 L10.2227349,56.4710223 Z M10.2237123,57.7210696 L1.72053809,62.7284815 L1.72053809,72.7405274 L10.2237123,77.7468281 L18.7274312,72.7405274 L18.7274312,62.7284815 L10.2237123,57.7210696 Z" id="Combined-Shape" fill="url(#linearGradient-1)" fill-rule="nonzero"></path>
        </g>
    </g>
</svg>