<?xml version="1.0" encoding="UTF-8"?>
<svg width="222px" height="36px" viewBox="0 0 222 36" version="1.1" xmlns="http://www.w3.org/2000/svg" xmlns:xlink="http://www.w3.org/1999/xlink">
    <!-- Generator: Sketch 49.3 (51167) - http://www.bohemiancoding.com/sketch -->
    <title>logo-mobile</title>
    <desc>Created with Sketch.</desc>
    <defs>
        <linearGradient x1="62.1073077%" y1="6.00464502%" x2="35.6980542%" y2="97.4508302%" id="linearGradient-1">
            <stop stop-color="#FF8751" offset="0%"></stop>
            <stop stop-color="#FF496B" offset="34.0423552%"></stop>
            <stop stop-color="#DA078D" offset="72.9205886%"></stop>
            <stop stop-color="#8C1BAB" offset="100%"></stop>
        </linearGradient>
    </defs>
    <g id="logo-mobile" stroke="none" stroke-width="1" fill="none" fill-rule="evenodd">
        <path d="M60.3022783,11.2087077 C60.233116,11.3418574 60.1332165,11.4084312 60.0025766,11.4084312 C59.9026756,11.4084312 59.7739588,11.3359832 59.6164226,11.191085 C59.4588863,11.0461868 59.2456392,10.8856263 58.9766748,10.7093988 C58.7077104,10.5331712 58.37151,10.3706527 57.9680635,10.2218383 C57.5646169,10.0730239 57.0670403,9.99861783 56.4753187,9.99861783 C55.8835971,9.99861783 55.3629667,10.0847722 54.913412,10.2570836 C54.4638573,10.429395 54.0873128,10.6643616 53.7837673,10.9619903 C53.4802218,11.2596191 53.2496844,11.6042367 53.0921481,11.9958535 C52.9346118,12.3874703 52.8558449,12.7986617 52.8558449,13.2294402 C52.8558449,13.7933684 52.9730347,14.2593854 53.207418,14.6275052 C53.4418012,14.995625 53.7511056,15.3089137 54.1353404,15.5673808 C54.5195752,15.8258479 54.9556752,16.0431919 55.4436534,16.2194195 C55.9316316,16.395647 56.4330505,16.5699139 56.9479251,16.7422253 C57.4627998,16.9145367 57.9642187,17.104468 58.4521969,17.3120249 C58.9401751,17.5195818 59.3762751,17.780003 59.7605099,18.0932965 C60.1447447,18.4065899 60.4540491,18.7923267 60.6884323,19.2505183 C60.9228156,19.70871 61.0400054,20.2785038 61.0400054,20.9599171 C61.0400054,21.656995 60.9228156,22.3129433 60.6884323,22.9277816 C60.4540491,23.54262 60.1140064,24.0771689 59.668294,24.5314444 C59.2225816,24.9857198 58.6769764,25.3440438 58.0314619,25.6064271 C57.3859474,25.8688103 56.6482276,26 55.8182804,26 C54.742423,26 53.816431,25.8061526 53.0402766,25.418452 C52.2641223,25.0307513 51.5840369,24.5001185 51,23.8265377 L51.3227556,23.3096061 C51.414972,23.192121 51.5225561,23.1333794 51.6455113,23.1333794 C51.7146735,23.1333794 51.8030462,23.1803727 51.910632,23.2743607 C52.0182177,23.3683488 52.1488556,23.483874 52.3025495,23.6209399 C52.4562434,23.7580058 52.6406734,23.9068179 52.8558449,24.0673808 C53.0710164,24.2279437 53.3207652,24.3767558 53.605099,24.5138217 C53.8894328,24.6508876 54.2160274,24.7664128 54.5848929,24.8604008 C54.9537583,24.9543889 55.3725679,25.0013822 55.8413344,25.0013822 C56.4868489,25.0013822 57.0631925,24.9015214 57.5703824,24.7017968 C58.0775724,24.5020723 58.5059878,24.2299027 58.8556414,23.8852799 C59.2052951,23.5406571 59.4723343,23.1314237 59.656767,22.6575674 C59.8411997,22.1837111 59.9334147,21.6765749 59.9334147,21.1361437 C59.9334147,20.5487186 59.8162248,20.0650791 59.5818416,19.6852108 C59.3474584,19.3053425 59.038154,18.9881376 58.6539192,18.7335867 C58.2696844,18.4790358 57.8335844,18.2656079 57.3456062,18.0932965 C56.857628,17.9209851 56.3562091,17.7525924 55.8413344,17.5881133 C55.3264598,17.4236343 54.8250409,17.2395772 54.3370627,17.0359364 C53.8490844,16.8322957 53.4129845,16.5718744 53.0287497,16.2546648 C52.6445148,15.9374552 52.3352105,15.5419282 52.1008272,15.0680719 C51.866444,14.5942156 51.7492541,14.000925 51.7492541,13.2881824 C51.7492541,12.7320866 51.852996,12.1955796 52.0604828,11.6786455 C52.2679696,11.1617113 52.5715105,10.7054846 52.9711147,10.3099516 C53.3707189,9.91441866 53.8644533,9.59721382 54.4523325,9.35832757 C55.0402118,9.11944133 55.7106915,9 56.4637917,9 C57.3091083,9 58.0679607,9.13706382 58.7403716,9.41119558 C59.4127825,9.68532733 60.0256278,10.104351 60.578926,10.6682792 L60.3022783,11.2087077 Z M75.1144562,9.18797512 L75.1144562,10.2100898 L69.3855438,10.2100898 L69.3855438,25.8120249 L68.2097912,25.8120249 L68.2097912,10.2100898 L62.4462978,10.2100898 L62.4462978,9.18797512 L75.1144562,9.18797512 Z M87.7134527,9.18797512 L87.7134527,10.186593 L79.1258476,10.186593 L79.1258476,16.9067035 L86.2725793,16.9067035 L86.2725793,17.8818245 L79.1258476,17.8818245 L79.1258476,24.813407 L87.7134527,24.813407 L87.7134527,25.8120249 L77.9385679,25.8120249 L77.9385679,9.18797512 L87.7134527,9.18797512 Z M92.7392189,24.7899102 L100.473827,24.7899102 L100.473827,25.8120249 L91.5634662,25.8120249 L91.5634662,9.18797512 L92.7392189,9.18797512 L92.7392189,24.7899102 Z M104.531326,24.7899102 L112.265934,24.7899102 L112.265934,25.8120249 L103.355574,25.8120249 L103.355574,9.18797512 L104.531326,9.18797512 L104.531326,24.7899102 Z M127.423922,25.8120249 L126.51329,25.8120249 C126.405704,25.8120249 126.317332,25.7826541 126.248169,25.7239115 C126.179007,25.665169 126.125215,25.5888049 126.086791,25.4948169 L124.161785,20.6662059 L116.150529,20.6662059 L114.237049,25.4948169 C114.20631,25.5809726 114.152518,25.6553786 114.075671,25.7180373 C113.998824,25.780696 113.906609,25.8120249 113.799024,25.8120249 L112.899919,25.8120249 L119.574044,9.18797512 L120.749797,9.18797512 L127.423922,25.8120249 Z M116.507865,19.7733241 L123.815975,19.7733241 L120.484676,11.3731859 C120.430883,11.2400362 120.377091,11.089266 120.323298,10.9208708 C120.269505,10.7524755 120.215713,10.5742926 120.16192,10.3863165 C120.108127,10.5742926 120.054335,10.7524755 120.000542,10.9208708 C119.94675,11.089266 119.892958,11.2439523 119.839165,11.3849343 L116.507865,19.7733241 Z M131.527529,18.29302 L131.527529,25.8120249 L130.351777,25.8120249 L130.351777,9.18797512 L134.513019,9.18797512 C136.395769,9.18797512 137.802048,9.55804744 138.731896,10.2982032 C139.661744,11.0383589 140.126661,12.1250792 140.126661,13.5583967 C140.126661,14.1928159 140.019077,14.7724 139.803906,15.2971666 C139.588734,15.8219331 139.27943,16.2820759 138.875983,16.6776088 C138.472537,17.0731418 137.986487,17.3981789 137.417819,17.6527298 C136.849152,17.9072807 136.207489,18.0737153 135.492813,18.1520387 C135.677245,18.2695237 135.842464,18.4261681 135.988473,18.6219765 L141.602116,25.8120249 L140.576214,25.8120249 C140.453259,25.8120249 140.347596,25.7885282 140.259222,25.7415342 C140.170848,25.6945402 140.084396,25.616218 139.999864,25.5065653 L134.778139,18.7629578 C134.6475,18.5906465 134.507256,18.4692471 134.357404,18.398756 C134.207553,18.328265 133.975094,18.29302 133.660022,18.29302 L131.527529,18.29302 Z M131.527529,17.4001382 L134.363168,17.4001382 C135.085529,17.4001382 135.732955,17.3120258 136.305465,17.1357982 C136.877975,16.9595706 137.362104,16.7069816 137.757865,16.3780235 C138.153627,16.0490654 138.455247,15.6535384 138.662734,15.1914305 C138.870221,14.7293227 138.973963,14.2084802 138.973963,13.6288874 C138.973963,12.4462046 138.593576,11.5689962 137.832791,10.9972357 C137.072006,10.4254751 135.965426,10.1395992 134.513019,10.1395992 L131.527529,10.1395992 L131.527529,17.4001382 Z M161.58991,25.8120249 L160.402631,25.8120249 L160.402631,17.8465791 L150.189721,17.8465791 L150.189721,25.8120249 L149.002441,25.8120249 L149.002441,9.18797512 L150.189721,9.18797512 L150.189721,16.9419489 L160.402631,16.9419489 L160.402631,9.18797512 L161.58991,9.18797512 L161.58991,25.8120249 Z M178.707486,25.8120249 L177.796854,25.8120249 C177.689268,25.8120249 177.600895,25.7826541 177.531733,25.7239115 C177.462571,25.665169 177.408779,25.5888049 177.370355,25.4948169 L175.445349,20.6662059 L167.434093,20.6662059 L165.520613,25.4948169 C165.489874,25.5809726 165.436082,25.6553786 165.359235,25.7180373 C165.282388,25.780696 165.190173,25.8120249 165.082587,25.8120249 L164.183483,25.8120249 L170.857608,9.18797512 L172.03336,9.18797512 L178.707486,25.8120249 Z M167.791429,19.7733241 L175.099539,19.7733241 L171.76824,11.3731859 C171.714447,11.2400362 171.660655,11.089266 171.606862,10.9208708 C171.553069,10.7524755 171.499277,10.5742926 171.445484,10.3863165 C171.391691,10.5742926 171.337899,10.7524755 171.284106,10.9208708 C171.230313,11.089266 171.176521,11.2439523 171.122729,11.3849343 L167.791429,19.7733241 Z M192.793464,23.015895 C192.87031,23.015895 192.935629,23.0433077 192.989422,23.0981341 L193.450502,23.6033172 C193.112375,23.971437 192.743515,24.3023482 192.343911,24.5960608 C191.944307,24.8897734 191.508207,25.1404044 191.035598,25.3479613 C190.562989,25.5555182 190.04428,25.7160787 189.479455,25.8296475 C188.91463,25.9432164 188.2941,26 187.617846,26 C186.488196,26 185.452699,25.7983204 184.511324,25.3949551 C183.569948,24.9915898 182.763067,24.4198378 182.090656,23.6796821 C181.418245,22.9395264 180.893773,22.0446954 180.517223,20.9951624 C180.140673,19.9456294 179.9524,18.7786289 179.9524,17.4941258 C179.9524,16.2331197 180.146436,15.0817836 180.534513,14.0400829 C180.92259,12.9983823 181.468196,12.1035513 182.171345,11.3555632 C182.874495,10.6075752 183.715957,10.027991 184.695755,9.61679337 C185.675554,9.20559573 186.757159,9 187.940602,9 C188.532324,9 189.074087,9.04503526 189.565907,9.13510712 C190.057728,9.22517898 190.516882,9.35441058 190.943382,9.52280581 C191.369883,9.69120103 191.771402,9.90071287 192.147952,10.1513476 C192.524502,10.4019824 192.893362,10.6917744 193.254543,11.0207326 L192.897206,11.5494126 C192.835729,11.6434006 192.739672,11.6903939 192.609032,11.6903939 C192.539869,11.6903939 192.451497,11.6492748 192.343911,11.5670352 C192.236325,11.4847957 192.099924,11.3829769 191.934703,11.2615757 C191.769482,11.1401745 191.569683,11.0070268 191.3353,10.8621285 C191.100916,10.7172303 190.82235,10.5840826 190.499593,10.4626814 C190.176836,10.3412802 189.804134,10.2394614 189.381475,10.1572218 C188.958817,10.0749823 188.478531,10.0338632 187.940602,10.0338632 C186.949276,10.0338632 186.038653,10.20813 185.208706,10.556669 C184.378759,10.9052079 183.664093,11.4025538 183.064687,12.0487215 C182.46528,12.6948892 181.998442,13.478111 181.664158,14.3984105 C181.329874,15.31871 181.162734,16.3506047 181.162734,17.4941258 C181.162734,18.6689762 181.327952,19.7184934 181.658394,20.6427091 C181.988836,21.5669247 182.446069,22.3481885 183.030106,22.9865238 C183.614143,23.6248592 184.303834,24.1143729 185.0992,24.4550795 C185.894566,24.7957861 186.75716,24.9661368 187.687008,24.9661368 C188.271045,24.9661368 188.791676,24.9269757 189.248915,24.8486524 C189.706155,24.770329 190.126885,24.6528457 190.51112,24.496199 C190.895355,24.3395523 191.252688,24.147663 191.58313,23.9205252 C191.913572,23.6933875 192.240167,23.4270921 192.562924,23.121631 C192.601347,23.0903016 192.637849,23.0648469 192.67243,23.0452661 C192.707011,23.0256852 192.747355,23.015895 192.793464,23.015895 Z M201.201873,17.225447 C201.361134,17.2724774 201.503474,17.3444136 201.628899,17.4412578 C201.755696,17.539162 201.884413,17.6664355 202.015053,17.8230822 L209.530648,25.8120249 L208.573908,25.8120249 C208.374106,25.8120249 208.231941,25.7826541 208.14741,25.7239115 C208.062878,25.665169 207.974505,25.5888049 207.882289,25.4948169 L200.977624,18.3047685 C200.893092,18.2186128 200.816247,18.1442067 200.747084,18.081548 C200.677922,18.0188893 200.599155,17.9660219 200.510781,17.922944 C200.422407,17.8798662 200.316744,17.8485373 200.193789,17.8289565 C200.070834,17.8093756 199.917142,17.7995853 199.73271,17.7995853 L198.683754,17.7995853 L198.683754,25.8120249 L197.508001,25.8120249 L197.508001,9.16447823 L198.683754,9.16447823 L198.683754,16.8597097 L199.652021,16.8597097 C199.79803,16.8597097 199.924825,16.8538356 200.032411,16.8420871 C200.139997,16.8303386 200.237975,16.8068419 200.326349,16.7715964 C200.414723,16.7363509 200.497333,16.6913156 200.57418,16.6364893 C200.651027,16.5816629 200.731715,16.511173 200.816246,16.4250173 L207.398156,9.52868003 C207.521111,9.40336265 207.634458,9.3152502 207.738202,9.26434001 C207.841945,9.21342983 207.970662,9.18797512 208.124356,9.18797512 L209.081096,9.18797512 L201.957418,16.6482377 C201.811409,16.8048845 201.682692,16.9262838 201.571264,17.0124395 C201.459839,17.0985931 201.334968,17.1690817 201.196647,17.2239074 L201.201873,17.225447 Z M220.262273,11.2087077 C220.193111,11.3418574 220.093211,11.4084312 219.962571,11.4084312 C219.86267,11.4084312 219.733953,11.3359832 219.576417,11.191085 C219.418881,11.0461868 219.205634,10.8856263 218.936669,10.7093988 C218.667705,10.5331712 218.331505,10.3706527 217.928058,10.2218383 C217.524611,10.0730239 217.027035,9.99861783 216.435313,9.99861783 C215.843592,9.99861783 215.322961,10.0847722 214.873407,10.2570836 C214.423852,10.429395 214.047307,10.6643616 213.743762,10.9619903 C213.440216,11.2596191 213.209679,11.6042367 213.052143,11.9958535 C212.894606,12.3874703 212.815839,12.7986617 212.815839,13.2294402 C212.815839,13.7933684 212.933029,14.2593854 213.167413,14.6275052 C213.401796,14.995625 213.7111,15.3089137 214.095335,15.5673808 C214.47957,15.8258479 214.91567,16.0431919 215.403648,16.2194195 C215.891626,16.395647 216.393045,16.5699139 216.90792,16.7422253 C217.422794,16.9145367 217.924213,17.104468 218.412191,17.3120249 C218.90017,17.5195818 219.33627,17.780003 219.720504,18.0932965 C220.104739,18.4065899 220.414044,18.7923267 220.648427,19.2505183 C220.88281,19.70871 221,20.2785038 221,20.9599171 C221,21.656995 220.88281,22.3129433 220.648427,22.9277816 C220.414044,23.54262 220.074001,24.0771689 219.628289,24.5314444 C219.182576,24.9857198 218.636971,25.3440438 217.991456,25.6064271 C217.345942,25.8688103 216.608222,26 215.778275,26 C214.702418,26 213.776426,25.8061526 213.000271,25.418452 C212.224117,25.0307513 211.544031,24.5001185 210.959995,23.8265377 L211.28275,23.3096061 C211.374967,23.192121 211.482551,23.1333794 211.605506,23.1333794 C211.674668,23.1333794 211.763041,23.1803727 211.870627,23.2743607 C211.978212,23.3683488 212.10885,23.483874 212.262544,23.6209399 C212.416238,23.7580058 212.600668,23.9068179 212.815839,24.0673808 C213.031011,24.2279437 213.28076,24.3767558 213.565094,24.5138217 C213.849427,24.6508876 214.176022,24.7664128 214.544887,24.8604008 C214.913753,24.9543889 215.332563,25.0013822 215.801329,25.0013822 C216.446843,25.0013822 217.023187,24.9015214 217.530377,24.7017968 C218.037567,24.5020723 218.465982,24.2299027 218.815636,23.8852799 C219.16529,23.5406571 219.432329,23.1314237 219.616762,22.6575674 C219.801194,22.1837111 219.893409,21.6765749 219.893409,21.1361437 C219.893409,20.5487186 219.776219,20.0650791 219.541836,19.6852108 C219.307453,19.3053425 218.998149,18.9881376 218.613914,18.7335867 C218.229679,18.4790358 217.793579,18.2656079 217.305601,18.0932965 C216.817623,17.9209851 216.316204,17.7525924 215.801329,17.5881133 C215.286454,17.4236343 214.785035,17.2395772 214.297057,17.0359364 C213.809079,16.8322957 213.372979,16.5718744 212.988744,16.2546648 C212.604509,15.9374552 212.295205,15.5419282 212.060822,15.0680719 C211.826439,14.5942156 211.709249,14.000925 211.709249,13.2881824 C211.709249,12.7320866 211.812991,12.1955796 212.020477,11.6786455 C212.227964,11.1617113 212.531505,10.7054846 212.931109,10.3099516 C213.330714,9.91441866 213.824448,9.59721382 214.412327,9.35832757 C215.000206,9.11944133 215.670686,9 216.423786,9 C217.269103,9 218.027955,9.13706382 218.700366,9.41119558 C219.372777,9.68532733 219.985622,10.104351 220.538921,10.6682792 L220.262273,11.2087077 Z" id="STELLAR-HACKS" fill="#000000"></path>
        <g id="Shape" transform="translate(19.500000, 17.500000) rotate(276.000000) translate(-19.500000, -17.500000) translate(2.000000, 0.000000)" fill="url(#linearGradient-1)" fill-rule="nonzero">
            <g id="Group">
                <path d="M17.8619549,0.062915596 C16.7980213,0.062915596 15.6901789,0.2371434 14.5709852,0.578559502 C14.5657056,0.57943944 14.2321209,0.686791925 14.2269293,0.689431741 C10.5611939,1.93190477 6.86712448,5.42455629 4.08915893,10.2728409 C1.45286347,14.8740388 0.00800460821,20.0086554 0.223589518,24.0077995 C0.758680062,33.9255853 10.7573322,34.9964703 15.031193,34.9964703 C17.0708902,34.9964703 19.2302591,34.7712061 21.2752359,34.3454919 C27.9837103,32.9464778 31.7570622,30.8935815 33.5108675,27.6880539 C34.217722,26.3966563 34.574449,24.9270711 34.5803446,23.2591479 L34.5803446,23.1756417 C34.5734811,21.2243783 34.0903949,19.0032378 33.1296781,16.4801904 C28.9245405,5.43317968 23.9300101,0.062915596 17.8619549,0.062915596 Z M4.31794292,10.4039517 C7.06863037,5.60388774 10.7159751,2.15188937 14.3262743,0.934934556 C14.330762,0.933174679 14.6237815,0.83902127 14.6297651,0.837349387 C15.730656,0.498485107 16.8181719,0.326897118 17.8617789,0.326897118 C20.3212067,0.326897118 22.6045589,1.23692942 24.730754,3.07670463 C22.9548624,1.75239733 21.2055448,1.27388683 19.5436051,1.27388683 C18.674226,1.27388683 17.8286052,1.40482166 17.0162461,1.61442299 C10.2900849,3.34772566 2.79916923,13.7081204 1.34111129,17.7646365 C1.20578908,18.140405 1.08253454,18.5204105 0.971537162,18.9040687 C1.58406229,16.1244313 2.73405379,13.1687182 4.31794292,10.4039517 Z M5.08612915,12.7085104 C8.98170446,8.48832583 17.1817625,4.18278721 23.0369606,5.0557741 C31.6849073,6.34567581 31.5343498,20.5399622 29.1233186,26.357235 C29.1280702,26.3463238 29.0801136,26.4604518 29.0801136,26.4604518 C27.1696793,30.9525374 23.5470609,32.7501635 19.5821464,32.7511315 L19.5800346,32.7511315 C9.5226026,32.7512195 -2.74391476,21.1897087 5.08612915,12.7085104 Z M32.9292282,21.5650905 C32.2797456,18.113972 30.6253734,11.443159 28.2345808,7.1615547 C29.8835854,9.62186248 31.4298131,12.7551472 32.8832954,16.5742558 C34.6526755,21.2212105 34.7822025,24.8158469 33.2792677,27.5609908 C32.7301861,28.5650005 31.974319,29.4539143 30.9824524,30.243923 C32.1407154,28.8879379 33.731644,25.8275121 32.9292282,21.5650905 Z M0.587004079,25.0707651 C0.997935314,26.8931175 1.98883395,28.4312499 3.71624104,29.4026139 C7.51651902,31.5399842 12.7224106,33.2673913 18.6626988,33.7849711 C20.2985043,33.9274331 21.8234376,33.8473587 23.2014211,33.6326538 C22.5723531,33.7920986 21.9131033,33.9424801 21.2215597,34.086702 C19.1942696,34.5092484 17.0532035,34.7325768 15.031105,34.7325768 C10.9931557,34.7324888 1.75556228,33.7645565 0.587004079,25.0707651 Z M29.2159036,26.1627686 C29.2033187,26.1927877 29.1893483,26.2251159 29.1751469,26.2585987 C29.1903874,26.2216522 29.2032032,26.1904785 29.2159036,26.1627686 Z" id="Shape"></path>
            </g>
        </g>
    </g>
</svg>