<?xml version="1.0" encoding="UTF-8"?>
<svg width="222px" height="40px" viewBox="0 0 222 40" version="1.1" xmlns="http://www.w3.org/2000/svg" xmlns:xlink="http://www.w3.org/1999/xlink">
    <!-- Generator: Sketch 49.3 (51167) - http://www.bohemiancoding.com/sketch -->
    <title>logo</title>
    <desc>Created with Sketch.</desc>
    <defs>
        <linearGradient x1="62.1073077%" y1="6.00464502%" x2="35.6980542%" y2="97.4508302%" id="linearGradient-1">
            <stop stop-color="#FF8751" offset="0%"></stop>
            <stop stop-color="#FF496B" offset="34.0423552%"></stop>
            <stop stop-color="#DA078D" offset="72.9205886%"></stop>
            <stop stop-color="#8C1BAB" offset="100%"></stop>
        </linearGradient>
    </defs>
    <g id="logo" stroke="none" stroke-width="1" fill="none" fill-rule="evenodd">
        <path d="M60.2805,13.162 C60.2114997,13.292334 60.111834,13.3575 59.9815,13.3575 C59.8818328,13.3575 59.7534175,13.286584 59.59625,13.14475 C59.4390825,13.002916 59.2263347,12.8457509 58.958,12.67325 C58.6896653,12.5007491 58.354252,12.3416674 57.95175,12.196 C57.549248,12.0503326 57.0528363,11.9775 56.4625,11.9775 C55.8721637,11.9775 55.3527522,12.0618325 54.90425,12.2305 C54.4557478,12.3991675 54.0800848,12.6291652 53.77725,12.9205 C53.4744152,13.2118348 53.2444175,13.5491647 53.08725,13.9325 C52.9300825,14.3158352 52.8515,14.7183312 52.8515,15.14 C52.8515,15.6920028 52.9684155,16.1481649 53.20225,16.5085 C53.4360845,16.8688351 53.7446647,17.1754987 54.128,17.4285 C54.5113352,17.6815013 54.9464142,17.8942491 55.43325,18.06675 C55.9200858,18.2392509 56.4203308,18.4098325 56.934,18.5785 C57.4476692,18.7471675 57.9479142,18.9330823 58.43475,19.13625 C58.9215858,19.3394177 59.3566647,19.5943318 59.74,19.901 C60.1233352,20.2076682 60.4319155,20.5852478 60.66575,21.03375 C60.8995845,21.4822522 61.0165,22.0399967 61.0165,22.707 C61.0165,23.3893367 60.8995845,24.0314137 60.66575,24.63325 C60.4319155,25.2350863 60.0926689,25.7583311 59.648,26.203 C59.2033311,26.6476689 58.6590032,26.9984154 58.015,27.25525 C57.3709968,27.5120846 56.6350041,27.6405 55.807,27.6405 C54.7336613,27.6405 53.8098372,27.4507519 53.0355,27.07125 C52.2611628,26.6917481 51.5826696,26.1723366 51,25.513 L51.322,25.007 C51.4140005,24.8919994 51.5213327,24.8345 51.644,24.8345 C51.7130003,24.8345 51.8011661,24.8804995 51.9085,24.9725 C52.0158339,25.0645005 52.1461659,25.1775827 52.2995,25.31175 C52.4528341,25.4459173 52.6368323,25.5915825 52.8515,25.74875 C53.0661677,25.9059175 53.3153319,26.0515827 53.599,26.18575 C53.8826681,26.3199173 54.2084982,26.4329995 54.5765,26.525 C54.9445018,26.6170005 55.362331,26.663 55.83,26.663 C56.4740032,26.663 57.0489975,26.565251 57.555,26.36975 C58.0610025,26.174249 58.4884149,25.907835 58.83725,25.5705 C59.1860851,25.233165 59.4524991,24.8325857 59.6365,24.36875 C59.8205009,23.9049143 59.9125,23.4085026 59.9125,22.8795 C59.9125,22.3044971 59.7955845,21.8310852 59.56175,21.45925 C59.3279155,21.0874148 59.0193352,20.7769179 58.636,20.52775 C58.2526647,20.2785821 57.8175858,20.0696675 57.33075,19.901 C56.8439142,19.7323325 56.3436692,19.5675008 55.83,19.4065 C55.3163308,19.2454992 54.8160858,19.0653343 54.32925,18.866 C53.8424142,18.6666657 53.4073352,18.4117516 53.024,18.10125 C52.6406647,17.7907484 52.3320845,17.4035857 52.09825,16.93975 C51.8644155,16.4759143 51.7475,15.8951702 51.7475,15.1975 C51.7475,14.6531639 51.850999,14.1280025 52.058,13.622 C52.265001,13.1159975 52.5678313,12.6694186 52.9665,12.28225 C53.3651687,11.8950814 53.8577471,11.5845845 54.44425,11.35075 C55.0307529,11.1169155 55.6996629,11 56.451,11 C57.2943375,11 58.0514133,11.1341653 58.72225,11.4025 C59.3930867,11.6708347 60.0044972,12.0809972 60.5565,12.633 L60.2805,13.162 Z M75.058,11.184 L75.058,12.1845 L69.3425,12.1845 L69.3425,27.4565 L68.1695,27.4565 L68.1695,12.1845 L62.4195,12.1845 L62.4195,11.184 L75.058,11.184 Z M87.6275,11.184 L87.6275,12.1615 L79.06,12.1615 L79.06,18.7395 L86.19,18.7395 L86.19,19.694 L79.06,19.694 L79.06,26.479 L87.6275,26.479 L87.6275,27.4565 L77.8755,27.4565 L77.8755,11.184 L87.6275,11.184 Z M92.6415,26.456 L100.358,26.456 L100.358,27.4565 L91.4685,27.4565 L91.4685,11.184 L92.6415,11.184 L92.6415,26.456 Z M104.406,26.456 L112.1225,26.456 L112.1225,27.4565 L103.233,27.4565 L103.233,11.184 L104.406,11.184 L104.406,26.456 Z M127.245,27.4565 L126.3365,27.4565 C126.229166,27.4565 126.141,27.4277503 126.072,27.37025 C126.003,27.3127497 125.949334,27.2380005 125.911,27.146 L123.9905,22.4195 L115.998,22.4195 L114.089,27.146 C114.058333,27.2303338 114.004667,27.3031664 113.928,27.3645 C113.851333,27.4258336 113.759334,27.4565 113.652,27.4565 L112.755,27.4565 L119.4135,11.184 L120.5865,11.184 L127.245,27.4565 Z M116.3545,21.5455 L123.6455,21.5455 L120.322,13.323 C120.268333,13.192666 120.214667,13.0450842 120.161,12.88025 C120.107333,12.7154158 120.053667,12.5410009 120,12.357 C119.946333,12.5410009 119.892667,12.7154158 119.839,12.88025 C119.785333,13.0450842 119.731667,13.1964993 119.678,13.3345 L116.3545,21.5455 Z M131.339,20.0965 L131.339,27.4565 L130.166,27.4565 L130.166,11.184 L134.3175,11.184 C136.195843,11.184 137.598829,11.5462464 138.5265,12.27075 C139.454171,12.9952536 139.918,14.058993 139.918,15.462 C139.918,16.0830031 139.810668,16.6503308 139.596,17.164 C139.381332,17.6776692 139.072752,18.1280814 138.67025,18.51525 C138.267748,18.9024186 137.782836,19.2205821 137.2155,19.46975 C136.648164,19.7189179 136.008004,19.8818329 135.295,19.9585 C135.479001,20.0735006 135.643833,20.2268324 135.7895,20.4185 L141.39,27.4565 L140.3665,27.4565 C140.243833,27.4565 140.138417,27.4335002 140.05025,27.3875 C139.962083,27.3414998 139.875834,27.2648339 139.7915,27.1575 L134.582,20.5565 C134.451666,20.3878325 134.311751,20.2690003 134.16225,20.2 C134.012749,20.1309997 133.780835,20.0965 133.4665,20.0965 L131.339,20.0965 Z M131.339,19.2225 L134.168,19.2225 C134.88867,19.2225 135.53458,19.1362509 136.10575,18.96375 C136.67692,18.7912491 137.159915,18.5440016 137.55475,18.222 C137.949585,17.8999984 138.250499,17.5128356 138.4575,17.0605 C138.664501,16.6081644 138.768,16.0983362 138.768,15.531 C138.768,14.3733275 138.388504,13.5146695 137.6295,12.955 C136.870496,12.3953305 135.766507,12.1155 134.3175,12.1155 L131.339,12.1155 L131.339,19.2225 Z M161.331,27.4565 L160.1465,27.4565 L160.1465,19.6595 L149.9575,19.6595 L149.9575,27.4565 L148.773,27.4565 L148.773,11.184 L149.9575,11.184 L149.9575,18.774 L160.1465,18.774 L160.1465,11.184 L161.331,11.184 L161.331,27.4565 Z M178.4085,27.4565 L177.5,27.4565 C177.392666,27.4565 177.3045,27.4277503 177.2355,27.37025 C177.1665,27.3127497 177.112834,27.2380005 177.0745,27.146 L175.154,22.4195 L167.1615,22.4195 L165.2525,27.146 C165.221833,27.2303338 165.168167,27.3031664 165.0915,27.3645 C165.014833,27.4258336 164.922834,27.4565 164.8155,27.4565 L163.9185,27.4565 L170.577,11.184 L171.75,11.184 L178.4085,27.4565 Z M167.518,21.5455 L174.809,21.5455 L171.4855,13.323 C171.431833,13.192666 171.378167,13.0450842 171.3245,12.88025 C171.270833,12.7154158 171.217167,12.5410009 171.1635,12.357 C171.109833,12.5410009 171.056167,12.7154158 171.0025,12.88025 C170.948833,13.0450842 170.895167,13.1964993 170.8415,13.3345 L167.518,21.5455 Z M192.4615,24.7195 C192.538167,24.7195 192.603333,24.7463331 192.657,24.8 L193.117,25.2945 C192.779665,25.6548351 192.411669,25.9787486 192.013,26.26625 C191.614331,26.5537514 191.179252,26.7990823 190.70775,27.00225 C190.236248,27.2054177 189.718753,27.3625828 189.15525,27.47375 C188.591747,27.5849172 187.97267,27.6405 187.298,27.6405 C186.170994,27.6405 185.137921,27.4430853 184.19875,27.04825 C183.259579,26.6534147 182.454587,26.0937536 181.78375,25.36925 C181.112913,24.6447464 180.589669,23.7688385 180.214,22.7415 C179.838331,21.7141615 179.6505,20.5718396 179.6505,19.3145 C179.6505,18.0801605 179.844081,16.9531718 180.23125,15.9335 C180.618419,14.9138282 181.162746,14.0379203 181.86425,13.30575 C182.565754,12.5735797 183.405245,12.006252 184.38275,11.60375 C185.360255,11.201248 186.439327,11 187.62,11 C188.210336,11 188.750831,11.0440829 189.2415,11.13225 C189.732169,11.2204171 190.190248,11.3469158 190.61575,11.51175 C191.041252,11.6765842 191.441831,11.8816654 191.8175,12.127 C192.193169,12.3723346 192.561165,12.6559984 192.9215,12.978 L192.565,13.4955 C192.503666,13.5875005 192.407834,13.6335 192.2775,13.6335 C192.2085,13.6335 192.120334,13.5932504 192.013,13.51275 C191.905666,13.4322496 191.769584,13.3325839 191.60475,13.21375 C191.439916,13.0949161 191.240585,12.964584 191.00675,12.82275 C190.772915,12.680916 190.495002,12.5505839 190.173,12.43175 C189.850998,12.3129161 189.479169,12.2132504 189.0575,12.13275 C188.635831,12.0522496 188.156669,12.012 187.62,12.012 C186.630995,12.012 185.722504,12.1825816 184.8945,12.52375 C184.066496,12.8649184 183.353503,13.3517468 182.7555,13.98425 C182.157497,14.6167532 181.691752,15.3834122 181.35825,16.28425 C181.024748,17.1850878 180.858,18.1951611 180.858,19.3145 C180.858,20.4645058 181.022832,21.4918288 181.3525,22.3965 C181.682168,23.3011712 182.13833,24.0659135 182.721,24.69075 C183.30367,25.3155865 183.991746,25.7947483 184.78525,26.12825 C185.578754,26.4617517 186.439329,26.6285 187.367,26.6285 C187.94967,26.6285 188.469081,26.590167 188.92525,26.5135 C189.381419,26.4368329 189.801165,26.3218341 190.1845,26.1685 C190.567835,26.0151659 190.924332,25.8273344 191.254,25.605 C191.583668,25.3826656 191.909498,25.1220015 192.2315,24.823 C192.269834,24.7923332 192.30625,24.7674168 192.34075,24.74825 C192.37525,24.7290832 192.4155,24.7195 192.4615,24.7195 Z M200.850224,19.051503 C201.009112,19.0975388 201.151119,19.1679538 201.27625,19.26275 C201.402751,19.3585838 201.531166,19.4831659 201.6615,19.6365 L209.1595,27.4565 L208.205,27.4565 C208.005666,27.4565 207.863834,27.4277503 207.7795,27.37025 C207.695166,27.3127497 207.607,27.2380005 207.515,27.146 L200.6265,20.108 C200.542166,20.0236662 200.4655,19.9508336 200.3965,19.8895 C200.3275,19.8281664 200.248917,19.7764169 200.16075,19.73425 C200.072583,19.6920831 199.967167,19.6614168 199.8445,19.64225 C199.721833,19.6230832 199.568501,19.6135 199.3845,19.6135 L198.338,19.6135 L198.338,27.4565 L197.165,27.4565 L197.165,11.161 L198.338,11.161 L198.338,18.6935 L199.304,18.6935 C199.449667,18.6935 199.576166,18.6877501 199.6835,18.67625 C199.790834,18.6647499 199.888583,18.6417502 199.97675,18.60725 C200.064917,18.5727498 200.147333,18.5286669 200.224,18.475 C200.300667,18.4213331 200.381166,18.3523338 200.4655,18.268 L207.032,11.5175 C207.154667,11.3948327 207.267749,11.3085836 207.37125,11.25875 C207.474751,11.2089164 207.603166,11.184 207.7565,11.184 L208.711,11.184 L201.604,18.4865 C201.458333,18.6398341 201.329917,18.7586662 201.21875,18.843 C201.107586,18.9273316 200.983007,18.9963296 200.84501,19.049996 L200.850224,19.051503 Z M219.866,13.162 C219.797,13.292334 219.697334,13.3575 219.567,13.3575 C219.467333,13.3575 219.338917,13.286584 219.18175,13.14475 C219.024583,13.002916 218.811835,12.8457509 218.5435,12.67325 C218.275165,12.5007491 217.939752,12.3416674 217.53725,12.196 C217.134748,12.0503326 216.638336,11.9775 216.048,11.9775 C215.457664,11.9775 214.938252,12.0618325 214.48975,12.2305 C214.041248,12.3991675 213.665585,12.6291652 213.36275,12.9205 C213.059915,13.2118348 212.829917,13.5491647 212.67275,13.9325 C212.515583,14.3158352 212.437,14.7183312 212.437,15.14 C212.437,15.6920028 212.553915,16.1481649 212.78775,16.5085 C213.021585,16.8688351 213.330165,17.1754987 213.7135,17.4285 C214.096835,17.6815013 214.531914,17.8942491 215.01875,18.06675 C215.505586,18.2392509 216.005831,18.4098325 216.5195,18.5785 C217.033169,18.7471675 217.533414,18.9330823 218.02025,19.13625 C218.507086,19.3394177 218.942165,19.5943318 219.3255,19.901 C219.708835,20.2076682 220.017415,20.5852478 220.25125,21.03375 C220.485085,21.4822522 220.602,22.0399967 220.602,22.707 C220.602,23.3893367 220.485085,24.0314137 220.25125,24.63325 C220.017415,25.2350863 219.678169,25.7583311 219.2335,26.203 C218.788831,26.6476689 218.244503,26.9984154 217.6005,27.25525 C216.956497,27.5120846 216.220504,27.6405 215.3925,27.6405 C214.319161,27.6405 213.395337,27.4507519 212.621,27.07125 C211.846663,26.6917481 211.16817,26.1723366 210.5855,25.513 L210.9075,25.007 C210.9995,24.8919994 211.106833,24.8345 211.2295,24.8345 C211.2985,24.8345 211.386666,24.8804995 211.494,24.9725 C211.601334,25.0645005 211.731666,25.1775827 211.885,25.31175 C212.038334,25.4459173 212.222332,25.5915825 212.437,25.74875 C212.651668,25.9059175 212.900832,26.0515827 213.1845,26.18575 C213.468168,26.3199173 213.793998,26.4329995 214.162,26.525 C214.530002,26.6170005 214.947831,26.663 215.4155,26.663 C216.059503,26.663 216.634497,26.565251 217.1405,26.36975 C217.646503,26.174249 218.073915,25.907835 218.42275,25.5705 C218.771585,25.233165 219.037999,24.8325857 219.222,24.36875 C219.406001,23.9049143 219.498,23.4085026 219.498,22.8795 C219.498,22.3044971 219.381085,21.8310852 219.14725,21.45925 C218.913415,21.0874148 218.604835,20.7769179 218.2215,20.52775 C217.838165,20.2785821 217.403086,20.0696675 216.91625,19.901 C216.429414,19.7323325 215.929169,19.5675008 215.4155,19.4065 C214.901831,19.2454992 214.401586,19.0653343 213.91475,18.866 C213.427914,18.6666657 212.992835,18.4117516 212.6095,18.10125 C212.226165,17.7907484 211.917585,17.4035857 211.68375,16.93975 C211.449915,16.4759143 211.333,15.8951702 211.333,15.1975 C211.333,14.6531639 211.436499,14.1280025 211.6435,13.622 C211.850501,13.1159975 212.153331,12.6694186 212.552,12.28225 C212.950669,11.8950814 213.443247,11.5845845 214.02975,11.35075 C214.616253,11.1169155 215.285163,11 216.0365,11 C216.879838,11 217.636913,11.1341653 218.30775,11.4025 C218.978587,11.6708347 219.589997,12.0809972 220.142,12.633 L219.866,13.162 Z" id="STELLAR-HACKS" fill="#000000"></path>
        <g id="Shape" transform="translate(21.000000, 19.000000) rotate(276.000000) translate(-21.000000, -19.000000) translate(1.000000, -1.000000)" fill="url(#linearGradient-1)" fill-rule="nonzero">
            <g id="Group" transform="translate(-0.000000, 0.000000)">
                <path d="M20.4136627,0.0719035383 C19.1977387,0.0719035383 17.931633,0.271021029 16.6525545,0.661210859 C16.6465207,0.662216503 16.2652811,0.784905058 16.2593478,0.787921989 C12.0699359,2.20789116 7.84814226,6.1994929 4.67332449,11.7403896 C1.66041539,16.9989015 0.00914812366,22.8670348 0.255530877,27.4374851 C0.867062928,38.7720974 12.2940939,39.995966 17.1785063,39.995966 C19.5095888,39.995966 21.9774389,39.7385212 24.3145553,39.2519907 C31.9813833,37.6531175 36.2937854,35.3069503 38.2981342,31.6434901 C39.105968,30.1676072 39.513656,28.4880813 39.5203938,26.5818833 L39.5203938,26.4864477 C39.5125498,24.2564324 38.9604513,21.7179861 37.8624893,18.8345033 C33.0566177,6.20934821 27.348583,0.0719035383 20.4136627,0.0719035383 Z M4.93479191,11.8902306 C8.07843471,6.40444313 12.2468286,2.45930214 16.372885,1.06849664 C16.3780138,1.06648535 16.7128932,0.958881451 16.7197315,0.956970728 C17.9778926,0.569697265 19.2207679,0.373596706 20.4134616,0.373596706 C23.2242362,0.373596706 25.8337816,1.41363362 28.2637189,3.51623387 C26.2341284,2.00273981 24.2349084,1.45587066 22.3355487,1.45587066 C21.3419726,1.45587066 20.3755488,1.60551047 19.4471383,1.84505485 C11.760097,3.82597219 3.19905055,15.6664234 1.53269862,20.3024417 C1.37804466,20.7318914 1.23718233,21.1661834 1.11032819,21.60465 C1.8103569,18.4279215 3.1246329,15.0499637 4.93479191,11.8902306 Z M5.81271902,14.5240119 C10.2648051,9.7009438 19.6363,4.78032824 26.327955,5.77802755 C36.2113226,7.25220093 36.0392569,23.4742425 33.2837927,30.1225543 C33.2892231,30.1100843 33.2344155,30.2405163 33.2344155,30.2405163 C31.0510621,35.3743284 26.9109267,37.4287583 22.3795959,37.4298645 L22.3771824,37.4298645 C10.8829744,37.4299651 -3.13590258,24.21681 5.81271902,14.5240119 Z M37.6334036,24.6458177 C36.8911379,20.7016823 35.0004268,13.077896 32.2680923,8.18463394 C34.152669,10.9964143 35.9197864,14.577311 37.580909,18.9420067 C39.6030577,24.252812 39.7510885,28.3609679 38.0334488,31.4982752 C37.405927,32.6457148 36.5420789,33.6616163 35.4085171,34.5644834 C36.7322461,33.0147862 38.5504503,29.5171567 37.6334036,24.6458177 Z M0.670861805,28.6523029 C1.1404975,30.7349914 2.27295309,32.492857 4.24713261,33.6029873 C8.59030745,36.0456963 14.5398978,38.0198758 21.3287986,38.6113955 C23.1982906,38.7742093 24.9410715,38.6826957 26.5159098,38.4373186 C25.796975,38.6195413 25.0435466,38.7914058 24.2532111,38.9562308 C21.9363081,39.439141 19.4893754,39.6943734 17.1784057,39.6943734 C12.5636065,39.6942729 2.00635689,38.5880646 0.670861805,28.6523029 Z M33.3896041,29.900307 C33.3752213,29.9346145 33.3592552,29.971561 33.3430251,30.0098271 C33.3604427,29.9676025 33.3750894,29.9319755 33.3896041,29.900307 Z" id="Shape"></path>
            </g>
        </g>
    </g>
</svg>