<?xml version="1.0" encoding="UTF-8"?>
<svg width="217px" height="36px" viewBox="0 0 217 36" version="1.1" xmlns="http://www.w3.org/2000/svg" xmlns:xlink="http://www.w3.org/1999/xlink">
    <!-- Generator: Sketch 49.3 (51167) - http://www.bohemiancoding.com/sketch -->
    <title>logo-mobile</title>
    <desc>Created with Sketch.</desc>
    <defs>
        <linearGradient x1="62.1073077%" y1="6.00464502%" x2="35.6980542%" y2="97.4508302%" id="linearGradient-1">
            <stop stop-color="#FF8751" offset="0%"></stop>
            <stop stop-color="#FF496B" offset="34.0423552%"></stop>
            <stop stop-color="#DA078D" offset="72.9205886%"></stop>
            <stop stop-color="#8C1BAB" offset="100%"></stop>
        </linearGradient>
    </defs>
    <g id="logo-mobile" stroke="none" stroke-width="1" fill="none" fill-rule="evenodd">
        <path d="M59.2805,11.162 C59.2114997,11.292334 59.111834,11.3575 58.9815,11.3575 C58.8818328,11.3575 58.7534175,11.286584 58.59625,11.14475 C58.4390825,11.002916 58.2263347,10.8457509 57.958,10.67325 C57.6896653,10.5007491 57.354252,10.3416674 56.95175,10.196 C56.549248,10.0503326 56.0528363,9.9775 55.4625,9.9775 C54.8721637,9.9775 54.3527522,10.0618325 53.90425,10.2305 C53.4557478,10.3991675 53.0800848,10.6291652 52.77725,10.9205 C52.4744152,11.2118348 52.2444175,11.5491647 52.08725,11.9325 C51.9300825,12.3158352 51.8515,12.7183312 51.8515,13.14 C51.8515,13.6920028 51.9684155,14.1481649 52.20225,14.5085 C52.4360845,14.8688351 52.7446647,15.1754987 53.128,15.4285 C53.5113352,15.6815013 53.9464142,15.8942491 54.43325,16.06675 C54.9200858,16.2392509 55.4203308,16.4098325 55.934,16.5785 C56.4476692,16.7471675 56.9479142,16.9330823 57.43475,17.13625 C57.9215858,17.3394177 58.3566647,17.5943318 58.74,17.901 C59.1233352,18.2076682 59.4319155,18.5852478 59.66575,19.03375 C59.8995845,19.4822522 60.0165,20.0399967 60.0165,20.707 C60.0165,21.3893367 59.8995845,22.0314137 59.66575,22.63325 C59.4319155,23.2350863 59.0926689,23.7583311 58.648,24.203 C58.2033311,24.6476689 57.6590032,24.9984154 57.015,25.25525 C56.3709968,25.5120846 55.6350041,25.6405 54.807,25.6405 C53.7336613,25.6405 52.8098372,25.4507519 52.0355,25.07125 C51.2611628,24.6917481 50.5826696,24.1723366 50,23.513 L50.322,23.007 C50.4140005,22.8919994 50.5213327,22.8345 50.644,22.8345 C50.7130003,22.8345 50.8011661,22.8804995 50.9085,22.9725 C51.0158339,23.0645005 51.1461659,23.1775827 51.2995,23.31175 C51.4528341,23.4459173 51.6368323,23.5915825 51.8515,23.74875 C52.0661677,23.9059175 52.3153319,24.0515827 52.599,24.18575 C52.8826681,24.3199173 53.2084982,24.4329995 53.5765,24.525 C53.9445018,24.6170005 54.362331,24.663 54.83,24.663 C55.4740032,24.663 56.0489975,24.565251 56.555,24.36975 C57.0610025,24.174249 57.4884149,23.907835 57.83725,23.5705 C58.1860851,23.233165 58.4524991,22.8325857 58.6365,22.36875 C58.8205009,21.9049143 58.9125,21.4085026 58.9125,20.8795 C58.9125,20.3044971 58.7955845,19.8310852 58.56175,19.45925 C58.3279155,19.0874148 58.0193352,18.7769179 57.636,18.52775 C57.2526647,18.2785821 56.8175858,18.0696675 56.33075,17.901 C55.8439142,17.7323325 55.3436692,17.5675008 54.83,17.4065 C54.3163308,17.2454992 53.8160858,17.0653343 53.32925,16.866 C52.8424142,16.6666657 52.4073352,16.4117516 52.024,16.10125 C51.6406647,15.7907484 51.3320845,15.4035857 51.09825,14.93975 C50.8644155,14.4759143 50.7475,13.8951702 50.7475,13.1975 C50.7475,12.6531639 50.850999,12.1280025 51.058,11.622 C51.265001,11.1159975 51.5678313,10.6694186 51.9665,10.28225 C52.3651687,9.8950814 52.8577471,9.5845845 53.44425,9.35075 C54.0307529,9.1169155 54.6996629,9 55.451,9 C56.2943375,9 57.0514133,9.13416533 57.72225,9.4025 C58.3930867,9.67083467 59.0044972,10.0809972 59.5565,10.633 L59.2805,11.162 Z M74.058,9.184 L74.058,10.1845 L68.3425,10.1845 L68.3425,25.4565 L67.1695,25.4565 L67.1695,10.1845 L61.4195,10.1845 L61.4195,9.184 L74.058,9.184 Z M86.6275,9.184 L86.6275,10.1615 L78.06,10.1615 L78.06,16.7395 L85.19,16.7395 L85.19,17.694 L78.06,17.694 L78.06,24.479 L86.6275,24.479 L86.6275,25.4565 L76.8755,25.4565 L76.8755,9.184 L86.6275,9.184 Z M91.6415,24.456 L99.358,24.456 L99.358,25.4565 L90.4685,25.4565 L90.4685,9.184 L91.6415,9.184 L91.6415,24.456 Z M103.406,24.456 L111.1225,24.456 L111.1225,25.4565 L102.233,25.4565 L102.233,9.184 L103.406,9.184 L103.406,24.456 Z M126.245,25.4565 L125.3365,25.4565 C125.229166,25.4565 125.141,25.4277503 125.072,25.37025 C125.003,25.3127497 124.949334,25.2380005 124.911,25.146 L122.9905,20.4195 L114.998,20.4195 L113.089,25.146 C113.058333,25.2303338 113.004667,25.3031664 112.928,25.3645 C112.851333,25.4258336 112.759334,25.4565 112.652,25.4565 L111.755,25.4565 L118.4135,9.184 L119.5865,9.184 L126.245,25.4565 Z M115.3545,19.5455 L122.6455,19.5455 L119.322,11.323 C119.268333,11.192666 119.214667,11.0450842 119.161,10.88025 C119.107333,10.7154158 119.053667,10.5410009 119,10.357 C118.946333,10.5410009 118.892667,10.7154158 118.839,10.88025 C118.785333,11.0450842 118.731667,11.1964993 118.678,11.3345 L115.3545,19.5455 Z M130.339,18.0965 L130.339,25.4565 L129.166,25.4565 L129.166,9.184 L133.3175,9.184 C135.195843,9.184 136.598829,9.54624638 137.5265,10.27075 C138.454171,10.9952536 138.918,12.058993 138.918,13.462 C138.918,14.0830031 138.810668,14.6503308 138.596,15.164 C138.381332,15.6776692 138.072752,16.1280814 137.67025,16.51525 C137.267748,16.9024186 136.782836,17.2205821 136.2155,17.46975 C135.648164,17.7189179 135.008004,17.8818329 134.295,17.9585 C134.479001,18.0735006 134.643833,18.2268324 134.7895,18.4185 L140.39,25.4565 L139.3665,25.4565 C139.243833,25.4565 139.138417,25.4335002 139.05025,25.3875 C138.962083,25.3414998 138.875834,25.2648339 138.7915,25.1575 L133.582,18.5565 C133.451666,18.3878325 133.311751,18.2690003 133.16225,18.2 C133.012749,18.1309997 132.780835,18.0965 132.4665,18.0965 L130.339,18.0965 Z M130.339,17.2225 L133.168,17.2225 C133.88867,17.2225 134.53458,17.1362509 135.10575,16.96375 C135.67692,16.7912491 136.159915,16.5440016 136.55475,16.222 C136.949585,15.8999984 137.250499,15.5128356 137.4575,15.0605 C137.664501,14.6081644 137.768,14.0983362 137.768,13.531 C137.768,12.3733275 137.388504,11.5146695 136.6295,10.955 C135.870496,10.3953305 134.766507,10.1155 133.3175,10.1155 L130.339,10.1155 L130.339,17.2225 Z M155.892,25.4565 L154.7075,25.4565 L154.7075,17.6595 L144.5185,17.6595 L144.5185,25.4565 L143.334,25.4565 L143.334,9.184 L144.5185,9.184 L144.5185,16.774 L154.7075,16.774 L154.7075,9.184 L155.892,9.184 L155.892,25.4565 Z M172.9695,25.4565 L172.061,25.4565 C171.953666,25.4565 171.8655,25.4277503 171.7965,25.37025 C171.7275,25.3127497 171.673834,25.2380005 171.6355,25.146 L169.715,20.4195 L161.7225,20.4195 L159.8135,25.146 C159.782833,25.2303338 159.729167,25.3031664 159.6525,25.3645 C159.575833,25.4258336 159.483834,25.4565 159.3765,25.4565 L158.4795,25.4565 L165.138,9.184 L166.311,9.184 L172.9695,25.4565 Z M162.079,19.5455 L169.37,19.5455 L166.0465,11.323 C165.992833,11.192666 165.939167,11.0450842 165.8855,10.88025 C165.831833,10.7154158 165.778167,10.5410009 165.7245,10.357 C165.670833,10.5410009 165.617167,10.7154158 165.5635,10.88025 C165.509833,11.0450842 165.456167,11.1964993 165.4025,11.3345 L162.079,19.5455 Z M187.0225,22.7195 C187.099167,22.7195 187.164333,22.7463331 187.218,22.8 L187.678,23.2945 C187.340665,23.6548351 186.972669,23.9787486 186.574,24.26625 C186.175331,24.5537514 185.740252,24.7990823 185.26875,25.00225 C184.797248,25.2054177 184.279753,25.3625828 183.71625,25.47375 C183.152747,25.5849172 182.53367,25.6405 181.859,25.6405 C180.731994,25.6405 179.698921,25.4430853 178.75975,25.04825 C177.820579,24.6534147 177.015587,24.0937536 176.34475,23.36925 C175.673913,22.6447464 175.150669,21.7688385 174.775,20.7415 C174.399331,19.7141615 174.2115,18.5718396 174.2115,17.3145 C174.2115,16.0801605 174.405081,14.9531718 174.79225,13.9335 C175.179419,12.9138282 175.723746,12.0379203 176.42525,11.30575 C177.126754,10.5735797 177.966245,10.006252 178.94375,9.60375 C179.921255,9.20124799 181.000327,9 182.181,9 C182.771336,9 183.311831,9.04408289 183.8025,9.13225 C184.293169,9.22041711 184.751248,9.34691584 185.17675,9.51175 C185.602252,9.67658416 186.002831,9.88166544 186.3785,10.127 C186.754169,10.3723346 187.122165,10.6559984 187.4825,10.978 L187.126,11.4955 C187.064666,11.5875005 186.968834,11.6335 186.8385,11.6335 C186.7695,11.6335 186.681334,11.5932504 186.574,11.51275 C186.466666,11.4322496 186.330584,11.3325839 186.16575,11.21375 C186.000916,11.0949161 185.801585,10.964584 185.56775,10.82275 C185.333915,10.680916 185.056002,10.5505839 184.734,10.43175 C184.411998,10.3129161 184.040169,10.2132504 183.6185,10.13275 C183.196831,10.0522496 182.717669,10.012 182.181,10.012 C181.191995,10.012 180.283504,10.1825816 179.4555,10.52375 C178.627496,10.8649184 177.914503,11.3517468 177.3165,11.98425 C176.718497,12.6167532 176.252752,13.3834122 175.91925,14.28425 C175.585748,15.1850878 175.419,16.1951611 175.419,17.3145 C175.419,18.4645058 175.583832,19.4918288 175.9135,20.3965 C176.243168,21.3011712 176.69933,22.0659135 177.282,22.69075 C177.86467,23.3155865 178.552746,23.7947483 179.34625,24.12825 C180.139754,24.4617517 181.000329,24.6285 181.928,24.6285 C182.51067,24.6285 183.030081,24.590167 183.48625,24.5135 C183.942419,24.4368329 184.362165,24.3218341 184.7455,24.1685 C185.128835,24.0151659 185.485332,23.8273344 185.815,23.605 C186.144668,23.3826656 186.470498,23.1220015 186.7925,22.823 C186.830834,22.7923332 186.86725,22.7674168 186.90175,22.74825 C186.93625,22.7290832 186.9765,22.7195 187.0225,22.7195 Z M195.411224,17.051503 C195.570112,17.0975388 195.712119,17.1679538 195.83725,17.26275 C195.963751,17.3585838 196.092166,17.4831659 196.2225,17.6365 L203.7205,25.4565 L202.766,25.4565 C202.566666,25.4565 202.424834,25.4277503 202.3405,25.37025 C202.256166,25.3127497 202.168,25.2380005 202.076,25.146 L195.1875,18.108 C195.103166,18.0236662 195.0265,17.9508336 194.9575,17.8895 C194.8885,17.8281664 194.809917,17.7764169 194.72175,17.73425 C194.633583,17.6920831 194.528167,17.6614168 194.4055,17.64225 C194.282833,17.6230832 194.129501,17.6135 193.9455,17.6135 L192.899,17.6135 L192.899,25.4565 L191.726,25.4565 L191.726,9.161 L192.899,9.161 L192.899,16.6935 L193.865,16.6935 C194.010667,16.6935 194.137166,16.6877501 194.2445,16.67625 C194.351834,16.6647499 194.449583,16.6417502 194.53775,16.60725 C194.625917,16.5727498 194.708333,16.5286669 194.785,16.475 C194.861667,16.4213331 194.942166,16.3523338 195.0265,16.268 L201.593,9.5175 C201.715667,9.39483272 201.828749,9.30858358 201.93225,9.25875 C202.035751,9.20891642 202.164166,9.184 202.3175,9.184 L203.272,9.184 L196.165,16.4865 C196.019333,16.6398341 195.890917,16.7586662 195.77975,16.843 C195.668586,16.9273316 195.544007,16.9963296 195.40601,17.049996 L195.411224,17.051503 Z M214.427,11.162 C214.358,11.292334 214.258334,11.3575 214.128,11.3575 C214.028333,11.3575 213.899917,11.286584 213.74275,11.14475 C213.585583,11.002916 213.372835,10.8457509 213.1045,10.67325 C212.836165,10.5007491 212.500752,10.3416674 212.09825,10.196 C211.695748,10.0503326 211.199336,9.9775 210.609,9.9775 C210.018664,9.9775 209.499252,10.0618325 209.05075,10.2305 C208.602248,10.3991675 208.226585,10.6291652 207.92375,10.9205 C207.620915,11.2118348 207.390917,11.5491647 207.23375,11.9325 C207.076583,12.3158352 206.998,12.7183312 206.998,13.14 C206.998,13.6920028 207.114915,14.1481649 207.34875,14.5085 C207.582585,14.8688351 207.891165,15.1754987 208.2745,15.4285 C208.657835,15.6815013 209.092914,15.8942491 209.57975,16.06675 C210.066586,16.2392509 210.566831,16.4098325 211.0805,16.5785 C211.594169,16.7471675 212.094414,16.9330823 212.58125,17.13625 C213.068086,17.3394177 213.503165,17.5943318 213.8865,17.901 C214.269835,18.2076682 214.578415,18.5852478 214.81225,19.03375 C215.046085,19.4822522 215.163,20.0399967 215.163,20.707 C215.163,21.3893367 215.046085,22.0314137 214.81225,22.63325 C214.578415,23.2350863 214.239169,23.7583311 213.7945,24.203 C213.349831,24.6476689 212.805503,24.9984154 212.1615,25.25525 C211.517497,25.5120846 210.781504,25.6405 209.9535,25.6405 C208.880161,25.6405 207.956337,25.4507519 207.182,25.07125 C206.407663,24.6917481 205.72917,24.1723366 205.1465,23.513 L205.4685,23.007 C205.5605,22.8919994 205.667833,22.8345 205.7905,22.8345 C205.8595,22.8345 205.947666,22.8804995 206.055,22.9725 C206.162334,23.0645005 206.292666,23.1775827 206.446,23.31175 C206.599334,23.4459173 206.783332,23.5915825 206.998,23.74875 C207.212668,23.9059175 207.461832,24.0515827 207.7455,24.18575 C208.029168,24.3199173 208.354998,24.4329995 208.723,24.525 C209.091002,24.6170005 209.508831,24.663 209.9765,24.663 C210.620503,24.663 211.195497,24.565251 211.7015,24.36975 C212.207503,24.174249 212.634915,23.907835 212.98375,23.5705 C213.332585,23.233165 213.598999,22.8325857 213.783,22.36875 C213.967001,21.9049143 214.059,21.4085026 214.059,20.8795 C214.059,20.3044971 213.942085,19.8310852 213.70825,19.45925 C213.474415,19.0874148 213.165835,18.7769179 212.7825,18.52775 C212.399165,18.2785821 211.964086,18.0696675 211.47725,17.901 C210.990414,17.7323325 210.490169,17.5675008 209.9765,17.4065 C209.462831,17.2454992 208.962586,17.0653343 208.47575,16.866 C207.988914,16.6666657 207.553835,16.4117516 207.1705,16.10125 C206.787165,15.7907484 206.478585,15.4035857 206.24475,14.93975 C206.010915,14.4759143 205.894,13.8951702 205.894,13.1975 C205.894,12.6531639 205.997499,12.1280025 206.2045,11.622 C206.411501,11.1159975 206.714331,10.6694186 207.113,10.28225 C207.511669,9.8950814 208.004247,9.5845845 208.59075,9.35075 C209.177253,9.1169155 209.846163,9 210.5975,9 C211.440838,9 212.197913,9.13416533 212.86875,9.4025 C213.539587,9.67083467 214.150997,10.0809972 214.703,10.633 L214.427,11.162 Z" id="STELLARHACKS" fill="#000000"></path>
        <g id="Shape" transform="translate(19.233381, 17.233381) rotate(276.000000) translate(-19.233381, -17.233381) translate(1.733381, -0.266619)" fill="url(#linearGradient-1)" fill-rule="nonzero">
            <g id="Group">
                <path d="M17.8619549,0.062915596 C16.7980213,0.062915596 15.6901789,0.2371434 14.5709852,0.578559502 C14.5657056,0.57943944 14.2321209,0.686791925 14.2269293,0.689431741 C10.5611939,1.93190477 6.86712448,5.42455629 4.08915893,10.2728409 C1.45286347,14.8740388 0.00800460821,20.0086554 0.223589518,24.0077995 C0.758680062,33.9255853 10.7573322,34.9964703 15.031193,34.9964703 C17.0708902,34.9964703 19.2302591,34.7712061 21.2752359,34.3454919 C27.9837103,32.9464778 31.7570622,30.8935815 33.5108675,27.6880539 C34.217722,26.3966563 34.574449,24.9270711 34.5803446,23.2591479 L34.5803446,23.1756417 C34.5734811,21.2243783 34.0903949,19.0032378 33.1296781,16.4801904 C28.9245405,5.43317968 23.9300101,0.062915596 17.8619549,0.062915596 Z M4.31794292,10.4039517 C7.06863037,5.60388774 10.7159751,2.15188937 14.3262743,0.934934556 C14.330762,0.933174679 14.6237815,0.83902127 14.6297651,0.837349387 C15.730656,0.498485107 16.8181719,0.326897118 17.8617789,0.326897118 C20.3212067,0.326897118 22.6045589,1.23692942 24.730754,3.07670463 C22.9548624,1.75239733 21.2055448,1.27388683 19.5436051,1.27388683 C18.674226,1.27388683 17.8286052,1.40482166 17.0162461,1.61442299 C10.2900849,3.34772566 2.79916923,13.7081204 1.34111129,17.7646365 C1.20578908,18.140405 1.08253454,18.5204105 0.971537162,18.9040687 C1.58406229,16.1244313 2.73405379,13.1687182 4.31794292,10.4039517 Z M5.08612915,12.7085104 C8.98170446,8.48832583 17.1817625,4.18278721 23.0369606,5.0557741 C31.6849073,6.34567581 31.5343498,20.5399622 29.1233186,26.357235 C29.1280702,26.3463238 29.0801136,26.4604518 29.0801136,26.4604518 C27.1696793,30.9525374 23.5470609,32.7501635 19.5821464,32.7511315 L19.5800346,32.7511315 C9.5226026,32.7512195 -2.74391476,21.1897087 5.08612915,12.7085104 Z M32.9292282,21.5650905 C32.2797456,18.113972 30.6253734,11.443159 28.2345808,7.1615547 C29.8835854,9.62186248 31.4298131,12.7551472 32.8832954,16.5742558 C34.6526755,21.2212105 34.7822025,24.8158469 33.2792677,27.5609908 C32.7301861,28.5650005 31.974319,29.4539143 30.9824524,30.243923 C32.1407154,28.8879379 33.731644,25.8275121 32.9292282,21.5650905 Z M0.587004079,25.0707651 C0.997935314,26.8931175 1.98883395,28.4312499 3.71624104,29.4026139 C7.51651902,31.5399842 12.7224106,33.2673913 18.6626988,33.7849711 C20.2985043,33.9274331 21.8234376,33.8473587 23.2014211,33.6326538 C22.5723531,33.7920986 21.9131033,33.9424801 21.2215597,34.086702 C19.1942696,34.5092484 17.0532035,34.7325768 15.031105,34.7325768 C10.9931557,34.7324888 1.75556228,33.7645565 0.587004079,25.0707651 Z M29.2159036,26.1627686 C29.2033187,26.1927877 29.1893483,26.2251159 29.1751469,26.2585987 C29.1903874,26.2216522 29.2032032,26.1904785 29.2159036,26.1627686 Z" id="Shape"></path>
            </g>
        </g>
    </g>
</svg>