<?xml version="1.0" encoding="UTF-8"?>
<svg width="217px" height="40px" viewBox="0 0 217 40" version="1.1" xmlns="http://www.w3.org/2000/svg" xmlns:xlink="http://www.w3.org/1999/xlink">
    <!-- Generator: Sketch 49.3 (51167) - http://www.bohemiancoding.com/sketch -->
    <title>logo</title>
    <desc>Created with Sketch.</desc>
    <defs>
        <linearGradient x1="62.1073077%" y1="6.00464502%" x2="35.6980542%" y2="97.4508302%" id="linearGradient-1">
            <stop stop-color="#FF8751" offset="0%"></stop>
            <stop stop-color="#FF496B" offset="34.0423552%"></stop>
            <stop stop-color="#DA078D" offset="72.9205886%"></stop>
            <stop stop-color="#8C1BAB" offset="100%"></stop>
        </linearGradient>
    </defs>
    <g id="logo" stroke="none" stroke-width="1" fill="none" fill-rule="evenodd">
        <path d="M59.699,13.7055 C59.6299997,13.835834 59.530334,13.901 59.4,13.901 C59.3003328,13.901 59.1719175,13.830084 59.01475,13.68825 C58.8575825,13.546416 58.6448347,13.3892509 58.3765,13.21675 C58.1081653,13.0442491 57.772752,12.8851674 57.37025,12.7395 C56.967748,12.5938326 56.4713363,12.521 55.881,12.521 C55.2906637,12.521 54.7712522,12.6053325 54.32275,12.774 C53.8742478,12.9426675 53.4985848,13.1726652 53.19575,13.464 C52.8929152,13.7553348 52.6629175,14.0926648 52.50575,14.476 C52.3485825,14.8593353 52.27,15.2618312 52.27,15.6835 C52.27,16.2355028 52.3869155,16.6916649 52.62075,17.052 C52.8545845,17.4123351 53.1631648,17.7189987 53.5465,17.972 C53.9298353,18.2250013 54.3649142,18.4377491 54.85175,18.61025 C55.3385858,18.7827509 55.8388308,18.9533325 56.3525,19.122 C56.8661692,19.2906675 57.3664142,19.4765823 57.85325,19.67975 C58.3400858,19.8829177 58.7751648,20.1378318 59.1585,20.4445 C59.5418353,20.7511682 59.8504155,21.1287478 60.08425,21.57725 C60.3180845,22.0257522 60.435,22.5834967 60.435,23.2505 C60.435,23.9328367 60.3180845,24.5749137 60.08425,25.17675 C59.8504155,25.7785863 59.5111689,26.3018311 59.0665,26.7465 C58.6218311,27.1911689 58.0775032,27.5419154 57.4335,27.79875 C56.7894968,28.0555846 56.0535041,28.184 55.2255,28.184 C54.1521613,28.184 53.2283372,27.9942519 52.454,27.61475 C51.6796628,27.2352481 51.0011696,26.7158366 50.4185,26.0565 L50.7405,25.5505 C50.8325005,25.4354994 50.9398327,25.378 51.0625,25.378 C51.1315003,25.378 51.2196661,25.4239995 51.327,25.516 C51.4343339,25.6080005 51.5646659,25.7210827 51.718,25.85525 C51.8713341,25.9894173 52.0553323,26.1350825 52.27,26.29225 C52.4846677,26.4494175 52.7338319,26.5950827 53.0175,26.72925 C53.3011681,26.8634173 53.6269982,26.9764995 53.995,27.0685 C54.3630018,27.1605005 54.780831,27.2065 55.2485,27.2065 C55.8925032,27.2065 56.4674975,27.108751 56.9735,26.91325 C57.4795025,26.717749 57.9069149,26.451335 58.25575,26.114 C58.6045851,25.776665 58.8709991,25.3760857 59.055,24.91225 C59.2390009,24.4484143 59.331,23.9520026 59.331,23.423 C59.331,22.8479971 59.2140845,22.3745852 58.98025,22.00275 C58.7464155,21.6309148 58.4378353,21.3204179 58.0545,21.07125 C57.6711648,20.8220821 57.2360858,20.6131675 56.74925,20.4445 C56.2624142,20.2758325 55.7621692,20.1110008 55.2485,19.95 C54.7348308,19.7889992 54.2345858,19.6088343 53.74775,19.4095 C53.2609142,19.2101657 52.8258353,18.9552516 52.4425,18.64475 C52.0591648,18.3342484 51.7505845,17.9470857 51.51675,17.48325 C51.2829155,17.0194143 51.166,16.4386702 51.166,15.741 C51.166,15.1966639 51.269499,14.6715025 51.4765,14.1655 C51.683501,13.6594975 51.9863313,13.2129186 52.385,12.82575 C52.7836687,12.4385814 53.2762471,12.1280845 53.86275,11.89425 C54.4492529,11.6604155 55.1181629,11.5435 55.8695,11.5435 C56.7128376,11.5435 57.4699133,11.6776653 58.14075,11.946 C58.8115867,12.2143347 59.4229972,12.6244972 59.975,13.1765 L59.699,13.7055 Z M74.4765,11.7275 L74.4765,12.728 L68.761,12.728 L68.761,28 L67.588,28 L67.588,12.728 L61.838,12.728 L61.838,11.7275 L74.4765,11.7275 Z M87.046,11.7275 L87.046,12.705 L78.4785,12.705 L78.4785,19.283 L85.6085,19.283 L85.6085,20.2375 L78.4785,20.2375 L78.4785,27.0225 L87.046,27.0225 L87.046,28 L77.294,28 L77.294,11.7275 L87.046,11.7275 Z M92.06,26.9995 L99.7765,26.9995 L99.7765,28 L90.887,28 L90.887,11.7275 L92.06,11.7275 L92.06,26.9995 Z M103.8245,26.9995 L111.541,26.9995 L111.541,28 L102.6515,28 L102.6515,11.7275 L103.8245,11.7275 L103.8245,26.9995 Z M126.6635,28 L125.755,28 C125.647666,28 125.5595,27.9712503 125.4905,27.91375 C125.4215,27.8562497 125.367834,27.7815005 125.3295,27.6895 L123.409,22.963 L115.4165,22.963 L113.5075,27.6895 C113.476833,27.7738338 113.423167,27.8466664 113.3465,27.908 C113.269833,27.9693336 113.177834,28 113.0705,28 L112.1735,28 L118.832,11.7275 L120.005,11.7275 L126.6635,28 Z M115.773,22.089 L123.064,22.089 L119.7405,13.8665 C119.686833,13.736166 119.633167,13.5885842 119.5795,13.42375 C119.525833,13.2589158 119.472167,13.0845009 119.4185,12.9005 C119.364833,13.0845009 119.311167,13.2589158 119.2575,13.42375 C119.203833,13.5885842 119.150167,13.7399993 119.0965,13.878 L115.773,22.089 Z M130.7575,20.64 L130.7575,28 L129.5845,28 L129.5845,11.7275 L133.736,11.7275 C135.614343,11.7275 137.017329,12.0897464 137.945,12.81425 C138.872671,13.5387536 139.3365,14.602493 139.3365,16.0055 C139.3365,16.6265031 139.229168,17.1938308 139.0145,17.7075 C138.799832,18.2211692 138.491252,18.6715814 138.08875,19.05875 C137.686248,19.4459186 137.201336,19.7640821 136.634,20.01325 C136.066664,20.2624179 135.426504,20.425333 134.7135,20.502 C134.897501,20.6170006 135.062333,20.7703324 135.208,20.962 L140.8085,28 L139.785,28 C139.662333,28 139.556917,27.9770002 139.46875,27.931 C139.380583,27.8849998 139.294334,27.8083339 139.21,27.701 L134.0005,21.1 C133.870166,20.9313325 133.730251,20.8125003 133.58075,20.7435 C133.431249,20.6744997 133.199335,20.64 132.885,20.64 L130.7575,20.64 Z M130.7575,19.766 L133.5865,19.766 C134.30717,19.766 134.95308,19.6797509 135.52425,19.50725 C136.09542,19.3347491 136.578415,19.0875016 136.97325,18.7655 C137.368085,18.4434984 137.668999,18.0563356 137.876,17.604 C138.083001,17.1516644 138.1865,16.6418362 138.1865,16.0745 C138.1865,14.9168275 137.807004,14.0581695 137.048,13.4985 C136.288996,12.9388305 135.185007,12.659 133.736,12.659 L130.7575,12.659 L130.7575,19.766 Z M156.3105,28 L155.126,28 L155.126,20.203 L144.937,20.203 L144.937,28 L143.7525,28 L143.7525,11.7275 L144.937,11.7275 L144.937,19.3175 L155.126,19.3175 L155.126,11.7275 L156.3105,11.7275 L156.3105,28 Z M173.388,28 L172.4795,28 C172.372166,28 172.284,27.9712503 172.215,27.91375 C172.146,27.8562497 172.092334,27.7815005 172.054,27.6895 L170.1335,22.963 L162.141,22.963 L160.232,27.6895 C160.201333,27.7738338 160.147667,27.8466664 160.071,27.908 C159.994333,27.9693336 159.902334,28 159.795,28 L158.898,28 L165.5565,11.7275 L166.7295,11.7275 L173.388,28 Z M162.4975,22.089 L169.7885,22.089 L166.465,13.8665 C166.411333,13.736166 166.357667,13.5885842 166.304,13.42375 C166.250333,13.2589158 166.196667,13.0845009 166.143,12.9005 C166.089333,13.0845009 166.035667,13.2589158 165.982,13.42375 C165.928333,13.5885842 165.874667,13.7399993 165.821,13.878 L162.4975,22.089 Z M187.441,25.263 C187.517667,25.263 187.582833,25.2898331 187.6365,25.3435 L188.0965,25.838 C187.759165,26.1983351 187.391169,26.5222486 186.9925,26.80975 C186.593831,27.0972514 186.158752,27.3425823 185.68725,27.54575 C185.215748,27.7489177 184.698253,27.9060828 184.13475,28.01725 C183.571247,28.1284172 182.95217,28.184 182.2775,28.184 C181.150494,28.184 180.117421,27.9865853 179.17825,27.59175 C178.239079,27.1969147 177.434087,26.6372536 176.76325,25.91275 C176.092413,25.1882464 175.569169,24.3123385 175.1935,23.285 C174.817831,22.2576615 174.63,21.1153396 174.63,19.858 C174.63,18.6236605 174.823581,17.4966718 175.21075,16.477 C175.597919,15.4573282 176.142246,14.5814203 176.84375,13.84925 C177.545254,13.1170797 178.384745,12.549752 179.36225,12.14725 C180.339755,11.744748 181.418827,11.5435 182.5995,11.5435 C183.189836,11.5435 183.730331,11.5875829 184.221,11.67575 C184.711669,11.7639171 185.169748,11.8904158 185.59525,12.05525 C186.020752,12.2200842 186.421331,12.4251654 186.797,12.6705 C187.172669,12.9158346 187.540665,13.1994984 187.901,13.5215 L187.5445,14.039 C187.483166,14.1310005 187.387334,14.177 187.257,14.177 C187.188,14.177 187.099834,14.1367504 186.9925,14.05625 C186.885166,13.9757496 186.749084,13.8760839 186.58425,13.75725 C186.419416,13.6384161 186.220085,13.508084 185.98625,13.36625 C185.752415,13.224416 185.474502,13.0940839 185.1525,12.97525 C184.830498,12.8564161 184.458669,12.7567504 184.037,12.67625 C183.615331,12.5957496 183.136169,12.5555 182.5995,12.5555 C181.610495,12.5555 180.702004,12.7260816 179.874,13.06725 C179.045996,13.4084184 178.333003,13.8952468 177.735,14.52775 C177.136997,15.1602532 176.671252,15.9269122 176.33775,16.82775 C176.004248,17.7285878 175.8375,18.7386611 175.8375,19.858 C175.8375,21.0080058 176.002332,22.0353288 176.332,22.94 C176.661668,23.8446712 177.11783,24.6094135 177.7005,25.23425 C178.28317,25.8590865 178.971246,26.3382483 179.76475,26.67175 C180.558254,27.0052517 181.418829,27.172 182.3465,27.172 C182.92917,27.172 183.448581,27.133667 183.90475,27.057 C184.360919,26.980333 184.780665,26.8653341 185.164,26.712 C185.547335,26.5586659 185.903832,26.3708344 186.2335,26.1485 C186.563168,25.9261656 186.888998,25.6655015 187.211,25.3665 C187.249334,25.3358332 187.28575,25.3109168 187.32025,25.29175 C187.35475,25.2725832 187.395,25.263 187.441,25.263 Z M195.829724,19.595003 C195.988612,19.6410388 196.130619,19.7114538 196.25575,19.80625 C196.382251,19.9020838 196.510666,20.0266659 196.641,20.18 L204.139,28 L203.1845,28 C202.985166,28 202.843334,27.9712503 202.759,27.91375 C202.674666,27.8562497 202.5865,27.7815005 202.4945,27.6895 L195.606,20.6515 C195.521666,20.5671662 195.445,20.4943336 195.376,20.433 C195.307,20.3716664 195.228417,20.3199169 195.14025,20.27775 C195.052083,20.2355831 194.946667,20.2049168 194.824,20.18575 C194.701333,20.1665832 194.548001,20.157 194.364,20.157 L193.3175,20.157 L193.3175,28 L192.1445,28 L192.1445,11.7045 L193.3175,11.7045 L193.3175,19.237 L194.2835,19.237 C194.429167,19.237 194.555666,19.2312501 194.663,19.21975 C194.770334,19.2082499 194.868083,19.1852502 194.95625,19.15075 C195.044417,19.1162498 195.126833,19.0721669 195.2035,19.0185 C195.280167,18.9648331 195.360666,18.8958338 195.445,18.8115 L202.0115,12.061 C202.134167,11.9383327 202.247249,11.8520836 202.35075,11.80225 C202.454251,11.7524164 202.582666,11.7275 202.736,11.7275 L203.6905,11.7275 L196.5835,19.03 C196.437833,19.1833341 196.309417,19.3021662 196.19825,19.3865 C196.087086,19.4708316 195.962507,19.5398296 195.82451,19.593496 L195.829724,19.595003 Z M214.8455,13.7055 C214.7765,13.835834 214.676834,13.901 214.5465,13.901 C214.446833,13.901 214.318417,13.830084 214.16125,13.68825 C214.004083,13.546416 213.791335,13.3892509 213.523,13.21675 C213.254665,13.0442491 212.919252,12.8851674 212.51675,12.7395 C212.114248,12.5938326 211.617836,12.521 211.0275,12.521 C210.437164,12.521 209.917752,12.6053325 209.46925,12.774 C209.020748,12.9426675 208.645085,13.1726652 208.34225,13.464 C208.039415,13.7553348 207.809417,14.0926648 207.65225,14.476 C207.495083,14.8593353 207.4165,15.2618312 207.4165,15.6835 C207.4165,16.2355028 207.533415,16.6916649 207.76725,17.052 C208.001085,17.4123351 208.309665,17.7189987 208.693,17.972 C209.076335,18.2250013 209.511414,18.4377491 209.99825,18.61025 C210.485086,18.7827509 210.985331,18.9533325 211.499,19.122 C212.012669,19.2906675 212.512914,19.4765823 212.99975,19.67975 C213.486586,19.8829177 213.921665,20.1378318 214.305,20.4445 C214.688335,20.7511682 214.996915,21.1287478 215.23075,21.57725 C215.464585,22.0257522 215.5815,22.5834967 215.5815,23.2505 C215.5815,23.9328367 215.464585,24.5749137 215.23075,25.17675 C214.996915,25.7785863 214.657669,26.3018311 214.213,26.7465 C213.768331,27.1911689 213.224003,27.5419154 212.58,27.79875 C211.935997,28.0555846 211.200004,28.184 210.372,28.184 C209.298661,28.184 208.374837,27.9942519 207.6005,27.61475 C206.826163,27.2352481 206.14767,26.7158366 205.565,26.0565 L205.887,25.5505 C205.979,25.4354994 206.086333,25.378 206.209,25.378 C206.278,25.378 206.366166,25.4239995 206.4735,25.516 C206.580834,25.6080005 206.711166,25.7210827 206.8645,25.85525 C207.017834,25.9894173 207.201832,26.1350825 207.4165,26.29225 C207.631168,26.4494175 207.880332,26.5950827 208.164,26.72925 C208.447668,26.8634173 208.773498,26.9764995 209.1415,27.0685 C209.509502,27.1605005 209.927331,27.2065 210.395,27.2065 C211.039003,27.2065 211.613997,27.108751 212.12,26.91325 C212.626003,26.717749 213.053415,26.451335 213.40225,26.114 C213.751085,25.776665 214.017499,25.3760857 214.2015,24.91225 C214.385501,24.4484143 214.4775,23.9520026 214.4775,23.423 C214.4775,22.8479971 214.360585,22.3745852 214.12675,22.00275 C213.892915,21.6309148 213.584335,21.3204179 213.201,21.07125 C212.817665,20.8220821 212.382586,20.6131675 211.89575,20.4445 C211.408914,20.2758325 210.908669,20.1110008 210.395,19.95 C209.881331,19.7889992 209.381086,19.6088343 208.89425,19.4095 C208.407414,19.2101657 207.972335,18.9552516 207.589,18.64475 C207.205665,18.3342484 206.897085,17.9470857 206.66325,17.48325 C206.429415,17.0194143 206.3125,16.4386702 206.3125,15.741 C206.3125,15.1966639 206.415999,14.6715025 206.623,14.1655 C206.830001,13.6594975 207.132831,13.2129186 207.5315,12.82575 C207.930169,12.4385814 208.422747,12.1280845 209.00925,11.89425 C209.595753,11.6604155 210.264663,11.5435 211.016,11.5435 C211.859338,11.5435 212.616413,11.6776653 213.28725,11.946 C213.958087,12.2143347 214.569497,12.6244972 215.1215,13.1765 L214.8455,13.7055 Z" id="STELLARHACKS" fill="#000000"></path>
        <g id="Shape" transform="translate(21.000000, 19.000000) rotate(276.000000) translate(-21.000000, -19.000000) translate(1.000000, -1.000000)" fill="url(#linearGradient-1)" fill-rule="nonzero">
            <g id="Group" transform="translate(-0.000000, 0.000000)">
                <path d="M20.4136627,0.0719035383 C19.1977387,0.0719035383 17.931633,0.271021029 16.6525545,0.661210859 C16.6465207,0.662216503 16.2652811,0.784905058 16.2593478,0.787921989 C12.0699359,2.20789116 7.84814226,6.1994929 4.67332449,11.7403896 C1.66041539,16.9989015 0.00914812366,22.8670348 0.255530877,27.4374851 C0.867062928,38.7720974 12.2940939,39.995966 17.1785063,39.995966 C19.5095888,39.995966 21.9774389,39.7385212 24.3145553,39.2519907 C31.9813833,37.6531175 36.2937854,35.3069503 38.2981342,31.6434901 C39.105968,30.1676072 39.513656,28.4880813 39.5203938,26.5818833 L39.5203938,26.4864477 C39.5125498,24.2564324 38.9604513,21.7179861 37.8624893,18.8345033 C33.0566177,6.20934821 27.348583,0.0719035383 20.4136627,0.0719035383 Z M4.93479191,11.8902306 C8.07843471,6.40444313 12.2468286,2.45930214 16.372885,1.06849664 C16.3780138,1.06648535 16.7128932,0.958881451 16.7197315,0.956970728 C17.9778926,0.569697265 19.2207679,0.373596706 20.4134616,0.373596706 C23.2242362,0.373596706 25.8337816,1.41363362 28.2637189,3.51623387 C26.2341284,2.00273981 24.2349084,1.45587066 22.3355487,1.45587066 C21.3419726,1.45587066 20.3755488,1.60551047 19.4471383,1.84505485 C11.760097,3.82597219 3.19905055,15.6664234 1.53269862,20.3024417 C1.37804466,20.7318914 1.23718233,21.1661834 1.11032819,21.60465 C1.8103569,18.4279215 3.1246329,15.0499637 4.93479191,11.8902306 Z M5.81271902,14.5240119 C10.2648051,9.7009438 19.6363,4.78032824 26.327955,5.77802755 C36.2113226,7.25220093 36.0392569,23.4742425 33.2837927,30.1225543 C33.2892231,30.1100843 33.2344155,30.2405163 33.2344155,30.2405163 C31.0510621,35.3743284 26.9109267,37.4287583 22.3795959,37.4298645 L22.3771824,37.4298645 C10.8829744,37.4299651 -3.13590258,24.21681 5.81271902,14.5240119 Z M37.6334036,24.6458177 C36.8911379,20.7016823 35.0004268,13.077896 32.2680923,8.18463394 C34.152669,10.9964143 35.9197864,14.577311 37.580909,18.9420067 C39.6030577,24.252812 39.7510885,28.3609679 38.0334488,31.4982752 C37.405927,32.6457148 36.5420789,33.6616163 35.4085171,34.5644834 C36.7322461,33.0147862 38.5504503,29.5171567 37.6334036,24.6458177 Z M0.670861805,28.6523029 C1.1404975,30.7349914 2.27295309,32.492857 4.24713261,33.6029873 C8.59030745,36.0456963 14.5398978,38.0198758 21.3287986,38.6113955 C23.1982906,38.7742093 24.9410715,38.6826957 26.5159098,38.4373186 C25.796975,38.6195413 25.0435466,38.7914058 24.2532111,38.9562308 C21.9363081,39.439141 19.4893754,39.6943734 17.1784057,39.6943734 C12.5636065,39.6942729 2.00635689,38.5880646 0.670861805,28.6523029 Z M33.3896041,29.900307 C33.3752213,29.9346145 33.3592552,29.971561 33.3430251,30.0098271 C33.3604427,29.9676025 33.3750894,29.9319755 33.3896041,29.900307 Z" id="Shape"></path>
            </g>
        </g>
    </g>
</svg>