<?xml version="1.0" encoding="UTF-8"?>
<svg width="222px" height="40px" viewBox="0 0 222 40" version="1.1" xmlns="http://www.w3.org/2000/svg" xmlns:xlink="http://www.w3.org/1999/xlink">
    <!-- Generator: Sketch 49.3 (51167) - http://www.bohemiancoding.com/sketch -->
    <title>logo-inverted</title>
    <desc>Created with Sketch.</desc>
    <defs></defs>
    <g id="logo-inverted" stroke="none" stroke-width="1" fill="none" fill-rule="evenodd">
        <path d="M60.3022783,13.2087077 C60.233116,13.3418574 60.1332165,13.4084312 60.0025766,13.4084312 C59.9026756,13.4084312 59.7739588,13.3359832 59.6164226,13.191085 C59.4588863,13.0461868 59.2456392,12.8856263 58.9766748,12.7093988 C58.7077104,12.5331712 58.37151,12.3706527 57.9680635,12.2218383 C57.5646169,12.0730239 57.0670403,11.9986178 56.4753187,11.9986178 C55.8835971,11.9986178 55.3629667,12.0847722 54.913412,12.2570836 C54.4638573,12.429395 54.0873128,12.6643616 53.7837673,12.9619903 C53.4802218,13.2596191 53.2496844,13.6042367 53.0921481,13.9958535 C52.9346118,14.3874703 52.8558449,14.7986617 52.8558449,15.2294402 C52.8558449,15.7933684 52.9730347,16.2593854 53.207418,16.6275052 C53.4418012,16.995625 53.7511056,17.3089137 54.1353404,17.5673808 C54.5195752,17.8258479 54.9556752,18.0431919 55.4436534,18.2194195 C55.9316316,18.395647 56.4330505,18.5699139 56.9479251,18.7422253 C57.4627998,18.9145367 57.9642187,19.104468 58.4521969,19.3120249 C58.9401751,19.5195818 59.3762751,19.780003 59.7605099,20.0932965 C60.1447447,20.4065899 60.4540491,20.7923267 60.6884323,21.2505183 C60.9228156,21.70871 61.0400054,22.2785038 61.0400054,22.9599171 C61.0400054,23.656995 60.9228156,24.3129433 60.6884323,24.9277816 C60.4540491,25.54262 60.1140064,26.0771689 59.668294,26.5314444 C59.2225816,26.9857198 58.6769764,27.3440438 58.0314619,27.6064271 C57.3859474,27.8688103 56.6482276,28 55.8182804,28 C54.742423,28 53.816431,27.8061526 53.0402766,27.418452 C52.2641223,27.0307513 51.5840369,26.5001185 51,25.8265377 L51.3227556,25.3096061 C51.414972,25.192121 51.5225561,25.1333794 51.6455113,25.1333794 C51.7146735,25.1333794 51.8030462,25.1803727 51.910632,25.2743607 C52.0182177,25.3683488 52.1488556,25.483874 52.3025495,25.6209399 C52.4562434,25.7580058 52.6406734,25.9068179 52.8558449,26.0673808 C53.0710164,26.2279437 53.3207652,26.3767558 53.605099,26.5138217 C53.8894328,26.6508876 54.2160274,26.7664128 54.5848929,26.8604008 C54.9537583,26.9543889 55.3725679,27.0013822 55.8413344,27.0013822 C56.4868489,27.0013822 57.0631925,26.9015214 57.5703824,26.7017968 C58.0775724,26.5020723 58.5059878,26.2299027 58.8556414,25.8852799 C59.2052951,25.5406571 59.4723343,25.1314237 59.656767,24.6575674 C59.8411997,24.1837111 59.9334147,23.6765749 59.9334147,23.1361437 C59.9334147,22.5487186 59.8162248,22.0650791 59.5818416,21.6852108 C59.3474584,21.3053425 59.038154,20.9881376 58.6539192,20.7335867 C58.2696844,20.4790358 57.8335844,20.2656079 57.3456062,20.0932965 C56.857628,19.9209851 56.3562091,19.7525924 55.8413344,19.5881133 C55.3264598,19.4236343 54.8250409,19.2395772 54.3370627,19.0359364 C53.8490844,18.8322957 53.4129845,18.5718744 53.0287497,18.2546648 C52.6445148,17.9374552 52.3352105,17.5419282 52.1008272,17.0680719 C51.866444,16.5942156 51.7492541,16.000925 51.7492541,15.2881824 C51.7492541,14.7320866 51.852996,14.1955796 52.0604828,13.6786455 C52.2679696,13.1617113 52.5715105,12.7054846 52.9711147,12.3099516 C53.3707189,11.9144187 53.8644533,11.5972138 54.4523325,11.3583276 C55.0402118,11.1194413 55.7106915,11 56.4637917,11 C57.3091083,11 58.0679607,11.1370638 58.7403716,11.4111956 C59.4127825,11.6853273 60.0256278,12.104351 60.578926,12.6682792 L60.3022783,13.2087077 Z M75.1144562,11.1879751 L75.1144562,12.2100898 L69.3855438,12.2100898 L69.3855438,27.8120249 L68.2097912,27.8120249 L68.2097912,12.2100898 L62.4462978,12.2100898 L62.4462978,11.1879751 L75.1144562,11.1879751 Z M87.7134527,11.1879751 L87.7134527,12.186593 L79.1258476,12.186593 L79.1258476,18.9067035 L86.2725793,18.9067035 L86.2725793,19.8818245 L79.1258476,19.8818245 L79.1258476,26.813407 L87.7134527,26.813407 L87.7134527,27.8120249 L77.9385679,27.8120249 L77.9385679,11.1879751 L87.7134527,11.1879751 Z M92.7392189,26.7899102 L100.473827,26.7899102 L100.473827,27.8120249 L91.5634662,27.8120249 L91.5634662,11.1879751 L92.7392189,11.1879751 L92.7392189,26.7899102 Z M104.531326,26.7899102 L112.265934,26.7899102 L112.265934,27.8120249 L103.355574,27.8120249 L103.355574,11.1879751 L104.531326,11.1879751 L104.531326,26.7899102 Z M127.423922,27.8120249 L126.51329,27.8120249 C126.405704,27.8120249 126.317332,27.7826541 126.248169,27.7239115 C126.179007,27.665169 126.125215,27.5888049 126.086791,27.4948169 L124.161785,22.6662059 L116.150529,22.6662059 L114.237049,27.4948169 C114.20631,27.5809726 114.152518,27.6553786 114.075671,27.7180373 C113.998824,27.780696 113.906609,27.8120249 113.799024,27.8120249 L112.899919,27.8120249 L119.574044,11.1879751 L120.749797,11.1879751 L127.423922,27.8120249 Z M116.507865,21.7733241 L123.815975,21.7733241 L120.484676,13.3731859 C120.430883,13.2400362 120.377091,13.089266 120.323298,12.9208708 C120.269505,12.7524755 120.215713,12.5742926 120.16192,12.3863165 C120.108127,12.5742926 120.054335,12.7524755 120.000542,12.9208708 C119.94675,13.089266 119.892958,13.2439523 119.839165,13.3849343 L116.507865,21.7733241 Z M131.527529,20.29302 L131.527529,27.8120249 L130.351777,27.8120249 L130.351777,11.1879751 L134.513019,11.1879751 C136.395769,11.1879751 137.802048,11.5580474 138.731896,12.2982032 C139.661744,13.0383589 140.126661,14.1250792 140.126661,15.5583967 C140.126661,16.1928159 140.019077,16.7724 139.803906,17.2971666 C139.588734,17.8219331 139.27943,18.2820759 138.875983,18.6776088 C138.472537,19.0731418 137.986487,19.3981789 137.417819,19.6527298 C136.849152,19.9072807 136.207489,20.0737153 135.492813,20.1520387 C135.677245,20.2695237 135.842464,20.4261681 135.988473,20.6219765 L141.602116,27.8120249 L140.576214,27.8120249 C140.453259,27.8120249 140.347596,27.7885282 140.259222,27.7415342 C140.170848,27.6945402 140.084396,27.616218 139.999864,27.5065653 L134.778139,20.7629578 C134.6475,20.5906465 134.507256,20.4692471 134.357404,20.398756 C134.207553,20.328265 133.975094,20.29302 133.660022,20.29302 L131.527529,20.29302 Z M131.527529,19.4001382 L134.363168,19.4001382 C135.085529,19.4001382 135.732955,19.3120258 136.305465,19.1357982 C136.877975,18.9595706 137.362104,18.7069816 137.757865,18.3780235 C138.153627,18.0490654 138.455247,17.6535384 138.662734,17.1914305 C138.870221,16.7293227 138.973963,16.2084802 138.973963,15.6288874 C138.973963,14.4462046 138.593576,13.5689962 137.832791,12.9972357 C137.072006,12.4254751 135.965426,12.1395992 134.513019,12.1395992 L131.527529,12.1395992 L131.527529,19.4001382 Z M161.58991,27.8120249 L160.402631,27.8120249 L160.402631,19.8465791 L150.189721,19.8465791 L150.189721,27.8120249 L149.002441,27.8120249 L149.002441,11.1879751 L150.189721,11.1879751 L150.189721,18.9419489 L160.402631,18.9419489 L160.402631,11.1879751 L161.58991,11.1879751 L161.58991,27.8120249 Z M178.707486,27.8120249 L177.796854,27.8120249 C177.689268,27.8120249 177.600895,27.7826541 177.531733,27.7239115 C177.462571,27.665169 177.408779,27.5888049 177.370355,27.4948169 L175.445349,22.6662059 L167.434093,22.6662059 L165.520613,27.4948169 C165.489874,27.5809726 165.436082,27.6553786 165.359235,27.7180373 C165.282388,27.780696 165.190173,27.8120249 165.082587,27.8120249 L164.183483,27.8120249 L170.857608,11.1879751 L172.03336,11.1879751 L178.707486,27.8120249 Z M167.791429,21.7733241 L175.099539,21.7733241 L171.76824,13.3731859 C171.714447,13.2400362 171.660655,13.089266 171.606862,12.9208708 C171.553069,12.7524755 171.499277,12.5742926 171.445484,12.3863165 C171.391691,12.5742926 171.337899,12.7524755 171.284106,12.9208708 C171.230313,13.089266 171.176521,13.2439523 171.122729,13.3849343 L167.791429,21.7733241 Z M192.793464,25.015895 C192.87031,25.015895 192.935629,25.0433077 192.989422,25.0981341 L193.450502,25.6033172 C193.112375,25.971437 192.743515,26.3023482 192.343911,26.5960608 C191.944307,26.8897734 191.508207,27.1404044 191.035598,27.3479613 C190.562989,27.5555182 190.04428,27.7160787 189.479455,27.8296475 C188.91463,27.9432164 188.2941,28 187.617846,28 C186.488196,28 185.452699,27.7983204 184.511324,27.3949551 C183.569948,26.9915898 182.763067,26.4198378 182.090656,25.6796821 C181.418245,24.9395264 180.893773,24.0446954 180.517223,22.9951624 C180.140673,21.9456294 179.9524,20.7786289 179.9524,19.4941258 C179.9524,18.2331197 180.146436,17.0817836 180.534513,16.0400829 C180.92259,14.9983823 181.468196,14.1035513 182.171345,13.3555632 C182.874495,12.6075752 183.715957,12.027991 184.695755,11.6167934 C185.675554,11.2055957 186.757159,11 187.940602,11 C188.532324,11 189.074087,11.0450353 189.565907,11.1351071 C190.057728,11.225179 190.516882,11.3544106 190.943382,11.5228058 C191.369883,11.691201 191.771402,11.9007129 192.147952,12.1513476 C192.524502,12.4019824 192.893362,12.6917744 193.254543,13.0207326 L192.897206,13.5494126 C192.835729,13.6434006 192.739672,13.6903939 192.609032,13.6903939 C192.539869,13.6903939 192.451497,13.6492748 192.343911,13.5670352 C192.236325,13.4847957 192.099924,13.3829769 191.934703,13.2615757 C191.769482,13.1401745 191.569683,13.0070268 191.3353,12.8621285 C191.100916,12.7172303 190.82235,12.5840826 190.499593,12.4626814 C190.176836,12.3412802 189.804134,12.2394614 189.381475,12.1572218 C188.958817,12.0749823 188.478531,12.0338632 187.940602,12.0338632 C186.949276,12.0338632 186.038653,12.20813 185.208706,12.556669 C184.378759,12.9052079 183.664093,13.4025538 183.064687,14.0487215 C182.46528,14.6948892 181.998442,15.478111 181.664158,16.3984105 C181.329874,17.31871 181.162734,18.3506047 181.162734,19.4941258 C181.162734,20.6689762 181.327952,21.7184934 181.658394,22.6427091 C181.988836,23.5669247 182.446069,24.3481885 183.030106,24.9865238 C183.614143,25.6248592 184.303834,26.1143729 185.0992,26.4550795 C185.894566,26.7957861 186.75716,26.9661368 187.687008,26.9661368 C188.271045,26.9661368 188.791676,26.9269757 189.248915,26.8486524 C189.706155,26.770329 190.126885,26.6528457 190.51112,26.496199 C190.895355,26.3395523 191.252688,26.147663 191.58313,25.9205252 C191.913572,25.6933875 192.240167,25.4270921 192.562924,25.121631 C192.601347,25.0903016 192.637849,25.0648469 192.67243,25.0452661 C192.707011,25.0256852 192.747355,25.015895 192.793464,25.015895 Z M201.201873,19.225447 C201.361134,19.2724774 201.503474,19.3444136 201.628899,19.4412578 C201.755696,19.539162 201.884413,19.6664355 202.015053,19.8230822 L209.530648,27.8120249 L208.573908,27.8120249 C208.374106,27.8120249 208.231941,27.7826541 208.14741,27.7239115 C208.062878,27.665169 207.974505,27.5888049 207.882289,27.4948169 L200.977624,20.3047685 C200.893092,20.2186128 200.816247,20.1442067 200.747084,20.081548 C200.677922,20.0188893 200.599155,19.9660219 200.510781,19.922944 C200.422407,19.8798662 200.316744,19.8485373 200.193789,19.8289565 C200.070834,19.8093756 199.917142,19.7995853 199.73271,19.7995853 L198.683754,19.7995853 L198.683754,27.8120249 L197.508001,27.8120249 L197.508001,11.1644782 L198.683754,11.1644782 L198.683754,18.8597097 L199.652021,18.8597097 C199.79803,18.8597097 199.924825,18.8538356 200.032411,18.8420871 C200.139997,18.8303386 200.237975,18.8068419 200.326349,18.7715964 C200.414723,18.7363509 200.497333,18.6913156 200.57418,18.6364893 C200.651027,18.5816629 200.731715,18.511173 200.816246,18.4250173 L207.398156,11.52868 C207.521111,11.4033627 207.634458,11.3152502 207.738202,11.26434 C207.841945,11.2134298 207.970662,11.1879751 208.124356,11.1879751 L209.081096,11.1879751 L201.957418,18.6482377 C201.811409,18.8048845 201.682692,18.9262838 201.571264,19.0124395 C201.459839,19.0985931 201.334968,19.1690817 201.196647,19.2239074 L201.201873,19.225447 Z M220.262273,13.2087077 C220.193111,13.3418574 220.093211,13.4084312 219.962571,13.4084312 C219.86267,13.4084312 219.733953,13.3359832 219.576417,13.191085 C219.418881,13.0461868 219.205634,12.8856263 218.936669,12.7093988 C218.667705,12.5331712 218.331505,12.3706527 217.928058,12.2218383 C217.524611,12.0730239 217.027035,11.9986178 216.435313,11.9986178 C215.843592,11.9986178 215.322961,12.0847722 214.873407,12.2570836 C214.423852,12.429395 214.047307,12.6643616 213.743762,12.9619903 C213.440216,13.2596191 213.209679,13.6042367 213.052143,13.9958535 C212.894606,14.3874703 212.815839,14.7986617 212.815839,15.2294402 C212.815839,15.7933684 212.933029,16.2593854 213.167413,16.6275052 C213.401796,16.995625 213.7111,17.3089137 214.095335,17.5673808 C214.47957,17.8258479 214.91567,18.0431919 215.403648,18.2194195 C215.891626,18.395647 216.393045,18.5699139 216.90792,18.7422253 C217.422794,18.9145367 217.924213,19.104468 218.412191,19.3120249 C218.90017,19.5195818 219.33627,19.780003 219.720504,20.0932965 C220.104739,20.4065899 220.414044,20.7923267 220.648427,21.2505183 C220.88281,21.70871 221,22.2785038 221,22.9599171 C221,23.656995 220.88281,24.3129433 220.648427,24.9277816 C220.414044,25.54262 220.074001,26.0771689 219.628289,26.5314444 C219.182576,26.9857198 218.636971,27.3440438 217.991456,27.6064271 C217.345942,27.8688103 216.608222,28 215.778275,28 C214.702418,28 213.776426,27.8061526 213.000271,27.418452 C212.224117,27.0307513 211.544031,26.5001185 210.959995,25.8265377 L211.28275,25.3096061 C211.374967,25.192121 211.482551,25.1333794 211.605506,25.1333794 C211.674668,25.1333794 211.763041,25.1803727 211.870627,25.2743607 C211.978212,25.3683488 212.10885,25.483874 212.262544,25.6209399 C212.416238,25.7580058 212.600668,25.9068179 212.815839,26.0673808 C213.031011,26.2279437 213.28076,26.3767558 213.565094,26.5138217 C213.849427,26.6508876 214.176022,26.7664128 214.544887,26.8604008 C214.913753,26.9543889 215.332563,27.0013822 215.801329,27.0013822 C216.446843,27.0013822 217.023187,26.9015214 217.530377,26.7017968 C218.037567,26.5020723 218.465982,26.2299027 218.815636,25.8852799 C219.16529,25.5406571 219.432329,25.1314237 219.616762,24.6575674 C219.801194,24.1837111 219.893409,23.6765749 219.893409,23.1361437 C219.893409,22.5487186 219.776219,22.0650791 219.541836,21.6852108 C219.307453,21.3053425 218.998149,20.9881376 218.613914,20.7335867 C218.229679,20.4790358 217.793579,20.2656079 217.305601,20.0932965 C216.817623,19.9209851 216.316204,19.7525924 215.801329,19.5881133 C215.286454,19.4236343 214.785035,19.2395772 214.297057,19.0359364 C213.809079,18.8322957 213.372979,18.5718744 212.988744,18.2546648 C212.604509,17.9374552 212.295205,17.5419282 212.060822,17.0680719 C211.826439,16.5942156 211.709249,16.000925 211.709249,15.2881824 C211.709249,14.7320866 211.812991,14.1955796 212.020477,13.6786455 C212.227964,13.1617113 212.531505,12.7054846 212.931109,12.3099516 C213.330714,11.9144187 213.824448,11.5972138 214.412327,11.3583276 C215.000206,11.1194413 215.670686,11 216.423786,11 C217.269103,11 218.027955,11.1370638 218.700366,11.4111956 C219.372777,11.6853273 219.985622,12.104351 220.538921,12.6682792 L220.262273,13.2087077 Z" id="STELLAR-HACKS" fill="#FFFFFF"></path>
        <g id="Shape" transform="translate(21.000000, 19.000000) rotate(276.000000) translate(-21.000000, -19.000000) translate(1.000000, -1.000000)" fill="#FFFFFF" fill-rule="nonzero">
            <g id="Group" transform="translate(-0.000000, 0.000000)">
                <path d="M20.4136627,0.0719035383 C19.1977387,0.0719035383 17.931633,0.271021029 16.6525545,0.661210859 C16.6465207,0.662216503 16.2652811,0.784905058 16.2593478,0.787921989 C12.0699359,2.20789116 7.84814226,6.1994929 4.67332449,11.7403896 C1.66041539,16.9989015 0.00914812366,22.8670348 0.255530877,27.4374851 C0.867062928,38.7720974 12.2940939,39.995966 17.1785063,39.995966 C19.5095888,39.995966 21.9774389,39.7385212 24.3145553,39.2519907 C31.9813833,37.6531175 36.2937854,35.3069503 38.2981342,31.6434901 C39.105968,30.1676072 39.513656,28.4880813 39.5203938,26.5818833 L39.5203938,26.4864477 C39.5125498,24.2564324 38.9604513,21.7179861 37.8624893,18.8345033 C33.0566177,6.20934821 27.348583,0.0719035383 20.4136627,0.0719035383 Z M4.93479191,11.8902306 C8.07843471,6.40444313 12.2468286,2.45930214 16.372885,1.06849664 C16.3780138,1.06648535 16.7128932,0.958881451 16.7197315,0.956970728 C17.9778926,0.569697265 19.2207679,0.373596706 20.4134616,0.373596706 C23.2242362,0.373596706 25.8337816,1.41363362 28.2637189,3.51623387 C26.2341284,2.00273981 24.2349084,1.45587066 22.3355487,1.45587066 C21.3419726,1.45587066 20.3755488,1.60551047 19.4471383,1.84505485 C11.760097,3.82597219 3.19905055,15.6664234 1.53269862,20.3024417 C1.37804466,20.7318914 1.23718233,21.1661834 1.11032819,21.60465 C1.8103569,18.4279215 3.1246329,15.0499637 4.93479191,11.8902306 Z M5.81271902,14.5240119 C10.2648051,9.7009438 19.6363,4.78032824 26.327955,5.77802755 C36.2113226,7.25220093 36.0392569,23.4742425 33.2837927,30.1225543 C33.2892231,30.1100843 33.2344155,30.2405163 33.2344155,30.2405163 C31.0510621,35.3743284 26.9109267,37.4287583 22.3795959,37.4298645 L22.3771824,37.4298645 C10.8829744,37.4299651 -3.13590258,24.21681 5.81271902,14.5240119 Z M37.6334036,24.6458177 C36.8911379,20.7016823 35.0004268,13.077896 32.2680923,8.18463394 C34.152669,10.9964143 35.9197864,14.577311 37.580909,18.9420067 C39.6030577,24.252812 39.7510885,28.3609679 38.0334488,31.4982752 C37.405927,32.6457148 36.5420789,33.6616163 35.4085171,34.5644834 C36.7322461,33.0147862 38.5504503,29.5171567 37.6334036,24.6458177 Z M0.670861805,28.6523029 C1.1404975,30.7349914 2.27295309,32.492857 4.24713261,33.6029873 C8.59030745,36.0456963 14.5398978,38.0198758 21.3287986,38.6113955 C23.1982906,38.7742093 24.9410715,38.6826957 26.5159098,38.4373186 C25.796975,38.6195413 25.0435466,38.7914058 24.2532111,38.9562308 C21.9363081,39.439141 19.4893754,39.6943734 17.1784057,39.6943734 C12.5636065,39.6942729 2.00635689,38.5880646 0.670861805,28.6523029 Z M33.3896041,29.900307 C33.3752213,29.9346145 33.3592552,29.971561 33.3430251,30.0098271 C33.3604427,29.9676025 33.3750894,29.9319755 33.3896041,29.900307 Z" id="Shape"></path>
            </g>
        </g>
    </g>
</svg>